<?xml version="1.0" encoding="UTF-8"?>
<svg width="500px" height="500px" viewBox="0 -50 330 330" version="1.1" xmlns="http://www.w3.org/2000/svg" xmlns:xlink="http://www.w3.org/1999/xlink">
    <title>online_protection_monochromatic</title>
    <defs>
        <linearGradient x1="140.552414%" y1="-4.77823169%" x2="55.2552226%" y2="47.3227313%" id="linearGradient-1">
            <stop stop-color="#000000" offset="0%"></stop>
            <stop stop-color="#000000" stop-opacity="0" offset="100%"></stop>
        </linearGradient>
        <linearGradient x1="-18.0599288%" y1="85.3844244%" x2="66.4370901%" y2="46.8757759%" id="linearGradient-2">
            <stop stop-color="#000000" offset="0%"></stop>
            <stop stop-color="#000000" stop-opacity="0" offset="100%"></stop>
        </linearGradient>
        <linearGradient x1="-146.632379%" y1="180.4811%" x2="105.653824%" y2="13.0584192%" id="linearGradient-3">
            <stop stop-color="#000000" offset="0%"></stop>
            <stop stop-color="#000000" stop-opacity="0" offset="100%"></stop>
        </linearGradient>
        <linearGradient x1="-77.6558273%" y1="102.43309%" x2="87.9985319%" y2="34.5498783%" id="linearGradient-4">
            <stop stop-color="#000000" offset="0%"></stop>
            <stop stop-color="#000000" stop-opacity="0" offset="100%"></stop>
        </linearGradient>
        <linearGradient x1="-71.0605883%" y1="151.536643%" x2="74.0668086%" y2="29.787234%" id="linearGradient-5">
            <stop stop-color="#000000" offset="0%"></stop>
            <stop stop-color="#000000" stop-opacity="0" offset="100%"></stop>
        </linearGradient>
        <linearGradient x1="-70.878952%" y1="151.77305%" x2="74.2484449%" y2="29.787234%" id="linearGradient-6">
            <stop stop-color="#000000" offset="0%"></stop>
            <stop stop-color="#000000" stop-opacity="0" offset="100%"></stop>
        </linearGradient>
    </defs>
    <g id="页面-1" stroke="none" stroke-width="1" fill="none" fill-rule="evenodd">
        <g id="online_protection_monochromatic">
            <path d="M152.17,6.97 C160.820583,8.30392062 169.237932,10.8594278 177.17,14.56 C188.17,19.83 197.25,27.92 207.59,34.22 C225.21,44.95 246.31,51.02 266.34,55.22 C274.34,56.91 282.44,58.48 289.64,62.29 C300.64,68.13 308.52,78.72 314,89.95 C326,114.6 328.19,144.5 317.51,169.8 C307.07,194.39 283.22,215.16 256.12,217.8 C221.92,221.31 187.73,228.01 153.47,232.25 C129.68,235.77 105.79,239.25 81.74,239.56 C71.74,239.67 61.48,239.18 51.95,235.95 C34.07,229.86 17.92,217.31 10.92,199.39 C5.23797302,184.70787 5.73206431,168.352367 12.29,154.04 C16.29,145.35 22.51,137.68 25.42,128.56 C28.05,120.32 27.76,111.62 27.36,103.09 C26.8600296,95.1475233 27.8608152,87.1819483 30.31,79.61 C35.05,64.12 42.52,49.31 53.07,36.99 C66.07,21.74 83.97,10.32 103.68,6.64 C111.306534,5.35702824 119.038861,4.81117754 126.77,5.01 C135.27454,5.00740681 143.766539,5.66269491 152.17,6.97 Z" id="Path" fill="#2C3E50" fill-rule="nonzero" opacity="0.18"></path>
            <path d="M98.71,176.31 C98.6774794,177.311851 98.8652292,178.308632 99.26,179.23 C99.746949,180.096657 100.486471,180.794319 101.38,181.23 C103.295777,182.220157 105.518175,182.43846 107.59,181.84 C107.872355,181.783854 108.126677,181.631967 108.31,181.41 C108.409739,181.219504 108.451458,181.003953 108.43,180.79 C108.275766,179.647793 107.697461,178.605416 106.81,177.87 C105.923565,177.149865 105.166093,176.284184 104.57,175.31 C103.57,173.39 104.33,168.31 100.71,169.09 C97.69,169.72 98.63,174.14 98.71,176.31 Z" id="Path" fill="#FFBAA8" fill-rule="nonzero"></path>
            <path d="M98.21,179.74 C98.21,179.74 97.7,181 98.33,181.74 C98.96,182.48 105.46,186.52 109.84,183.27 C114.22,180.02 103.9,179.59 103.9,179.59 L98.21,179.74 Z" id="Path" fill="#2C3E50" fill-rule="nonzero"></path>
            <path d="M98.47,176.79 C98.8830852,176.590687 99.3798001,176.722295 99.64,177.1 C100.51491,178.074679 101.82913,178.531635 103.12,178.31 C104.54,177.97 105.12,176.31 105.82,176.31 C106.52,176.31 110.32,179.53 110.53,180.91 C110.74,182.29 108.81,183.31 106.67,183.44 C104.53,183.57 99.67,182.1 98.78,180.97 C97.9995104,179.711138 97.8837487,178.150223 98.47,176.79 L98.47,176.79 Z" id="Path" fill="#FFFFFF" fill-rule="nonzero"></path>
            <path d="M86.3,178.25 C86.2674794,179.251851 86.4552292,180.248632 86.85,181.17 C87.3380517,182.039361 88.0816655,182.73759 88.98,183.17 C90.892078,184.160529 93.1115432,184.378895 95.18,183.78 C95.4753162,183.717802 95.7381588,183.550861 95.92,183.31 C96.0197386,183.119504 96.0614582,182.903953 96.04,182.69 C95.8857661,181.547793 95.307461,180.505416 94.42,179.77 C93.5335649,179.049865 92.7760934,178.184184 92.18,177.21 C91.23,175.29 91.94,170.21 88.32,171 C85.28,171.7 86.22,176.12 86.3,178.25 Z" id="Path" fill="#FFBAA8" fill-rule="nonzero"></path>
            <path d="M85.8,181.72 C85.8,181.72 85.29,182.98 85.92,183.72 C86.55,184.46 93.05,188.5 97.43,185.25 C101.81,182 91.49,181.57 91.49,181.57 L85.8,181.72 Z" id="Path" fill="#2C3E50" fill-rule="nonzero"></path>
            <path d="M86.06,178.78 C86.4702325,178.574145 86.9694364,178.702146 87.23,179.08 C88.1018171,180.060389 89.4157468,180.524796 90.71,180.31 C92.13,179.97 92.71,178.31 93.42,178.31 C94.13,178.31 97.91,181.53 98.12,182.91 C98.33,184.29 96.4,185.31 94.26,185.44 C92.12,185.57 87.26,184.1 86.37,182.97 C85.5826915,181.709696 85.4667375,180.142447 86.06,178.78 L86.06,178.78 Z" id="Path" fill="#FFFFFF" fill-rule="nonzero"></path>
            <path d="M83.72,124.83 C83.72,124.83 83.04,162 85.79,174.4 L92.79,175.26 L97.63,124.37 L83.72,124.83 Z" id="Path" fill="#473F47" fill-rule="nonzero"></path>
            <path d="M105.3,120.77 C105.3,120.77 108.59,140.77 104.6,173.02 L97.6,173.89 L92.76,122.99 L105.3,120.77 Z" id="Path" fill="#473F47" fill-rule="nonzero"></path>
            <path d="M104.66,105.09 C104.66,105.76 104.75,106.44 104.75,107.09 C104.75,110.8 103.89,114.62 105,118.26 C105.358155,119.034593 105.463126,119.902349 105.3,120.74 C104.985164,121.411108 104.433009,121.94189 103.75,122.23 C100.48,124.02 96.75,124.57 93.01,125.09 C90.24,125.48 86.3,126.3 83.74,124.81 C82.7648333,124.086052 82.1116077,123.009307 81.92,121.81 C80.9391837,117.980541 80.3593968,114.059438 80.19,110.11 C80.19,109.59 80.12,109.11 80.09,108.57 C79.88,105.01 79.8,101.46 79.87,97.91 C79.87,95.33 80.13,92.54 81.81,90.59 C84.05,88 88.38,86.28 91.67,85.68 C92.7395738,85.4671609 93.8346924,85.4132474 94.92,85.52 C96.4535844,85.7660886 97.9344819,86.2698642 99.3,87.01 C100.94,87.82 102.39,88.5 103.19,90.11 C104.071946,91.9782864 104.687927,93.9608702 105.02,96 C105.313332,97.9100276 105.34697,99.850955 105.12,101.77 C105.02,102.71 104.78,103.64 104.69,104.58 C104.67,104.75 104.67,104.92 104.66,105.09 Z" id="Path" fill="#FFFFFF" fill-rule="nonzero"></path>
            <path d="M101.56,88.31 L111.35,93.53 L132.07,86.17 L135.67,95.03 C135.67,95.03 116.67,104.75 113,104.79 C109.33,104.83 99.68,102.16 99.68,102.16 L101.56,88.31 Z" id="Path" fill="#FFFFFF" fill-rule="nonzero"></path>
            <path d="M110.15,99.13 C109.04,99 103.49,96.24 102.88,95.78 C103.73,97.57 104.88,103.13 105.07,103.24 C107.16257,104.284435 109.437991,104.912723 111.77,105.09 C114.109428,105.262262 116.453315,104.82106 118.57,103.81 C119.609601,103.202769 120.681153,102.651971 121.78,102.16 C122.44,101.91 123.13,101.77 123.78,101.55 C125.509302,100.895347 127.135841,99.9962038 128.61,98.88 C129.095393,98.6410302 129.458195,98.209296 129.61,97.69 C129.71,97.03 129.12,96.47 128.52,96.18 C127.574216,95.7651457 126.552769,95.550642 125.52,95.55 C124.163214,95.3746182 122.787732,95.4049597 121.44,95.64 C120.59,95.88 119.96,96.64 119.13,97.05 C116.73,98.1 112.75,99.43 110.15,99.13 Z" id="Path" fill="#020202" fill-rule="nonzero" opacity="0.1"></path>
            <path d="M89.53,126.1 C88.45,126.41 85.97,125.43 85.15,125.28 C84.65,125.2 84.15,124.95 83.72,124.83 C81.26,124.22 80.97,117.32 80.72,115.46 C80.08,110.55 79.1,105.46 79.04,100.54 C78.9330948,98.6432623 79.1529616,96.7422602 79.69,94.92 C80.2528477,93.074719 81.6039974,91.5734416 83.38,90.82 C83.7240509,90.674737 84.1038628,90.6364074 84.47,90.71 C85.96,91.09 86.27,93.56 86.53,94.71 C86.98,96.81 88,97.77 89.04,99.45 C90.08,101.13 90.15,103.23 91.14,104.96 C91.3845713,105.443383 91.7247829,105.87205 92.14,106.22 C92.9853343,106.713347 93.9674693,106.920297 94.94,106.81 L102,106.81 C102.568137,106.731325 103.144743,106.874581 103.61,107.21 C104.022932,107.750596 104.176591,108.445719 104.03,109.11 L103.6,114.33 C103.606943,114.558498 103.547924,114.78416 103.43,114.98 C103.227319,115.187845 102.958613,115.318663 102.67,115.35 C100.736141,115.62882 98.8571751,116.205666 97.1,117.06 C95.393884,118.231764 93.5788301,119.236406 91.68,120.06 C91.1326818,120.305476 90.6319632,120.643799 90.2,121.06 C89.695481,121.689834 89.4424992,122.484411 89.49,123.29 C89.49,123.8 90.14,125.37 89.95,125.74 C89.8644267,125.911846 89.7129121,126.041716 89.53,126.1 Z" id="Path" fill="#020202" fill-rule="nonzero" opacity="0.1"></path>
            <path d="M97.08,82.62 C96.6889561,83.0526446 96.1504522,83.3236797 95.57,83.38 C95.0843688,83.4248957 94.5956312,83.4248957 94.11,83.38 L93.84,83.38 C93.7749384,83.3593116 93.7050616,83.3593116 93.64,83.38 C93.5799439,83.4371053 93.5471878,83.5171758 93.55,83.6 C93.4649475,84.5714753 93.4649475,85.5485247 93.55,86.52 L93.55,86.52 C93.55,86.7 93.55,86.87 93.55,87.05 C93.6014077,87.2297296 93.6014077,87.4202704 93.55,87.6 C93.4105057,87.7988564 93.1987456,87.9352442 92.96,87.98 C92.5346802,88.1250094 92.0892995,88.2026137 91.64,88.21 C90.6725034,88.1413371 89.7375075,87.8319635 88.92,87.31 C88.9904905,85.6388669 88.9034395,83.9648088 88.66,82.31 C88.35,80.18 87.79,78.05 88.02,75.91 C88.0797404,75.0728132 88.3937469,74.2738411 88.92,73.62 C89.7706469,72.8132489 90.9203794,72.3997804 92.09,72.48 C93.6232761,72.457968 95.1314514,72.8705493 96.44,73.67 C96.92,74 96.97,74.42 97.08,74.96 C97.25,75.8 97.38,76.65 97.48,77.5 C97.58,78.35 97.64,79.44 97.66,80.42 C97.7353433,81.1990458 97.5296254,81.9793551 97.08,82.62 L97.08,82.62 Z" id="Path" fill="#FFBAA8" fill-rule="nonzero"></path>
            <path d="M95.38,74.15 C94.38,74.42 93.09,74.15 92.08,74.59 C90.6480087,75.323626 89.9743199,76.9993204 90.5,78.52 C90.09,78.67 90.01,77.92 89.69,77.62 C89.37,77.32 88.69,77.72 88.6,78.24 C88.6279093,78.7625 88.7823377,79.2703979 89.05,79.72 C89.444812,80.6392346 89.5153385,81.6653942 89.25,82.63 C89.18,82.86 89.01,83.13 88.79,83.07 C88.57,83.01 88.4,82.62 88.26,82.45 C88.0371994,82.1838882 87.793056,81.9364003 87.53,81.71 C87.03,81.27 86.47,80.88 85.95,80.45 C85.43,80.02 85.24,79.61 84.64,79.45 C84.0728184,79.3365038 83.4978275,79.2663014 82.92,79.24 C81.9937886,79.0611913 81.2481445,78.3743422 80.9940347,77.4658994 C80.7399248,76.5574566 81.0209848,75.5834175 81.72,74.95 C81.9177374,74.8126509 82.0846295,74.6355409 82.21,74.43 C82.2853412,74.1978554 82.305878,73.9514129 82.27,73.71 C82.2969283,72.4277692 82.9655016,71.2446198 84.05,70.56 C85.1205517,69.8852935 86.3647669,69.5377473 87.63,69.56 C87.9038877,69.5779559 88.1787029,69.5440281 88.44,69.46 C88.6813553,69.3364565 88.9009121,69.1743222 89.09,68.98 C90.1728793,68.0633909 91.6100125,67.6812599 93.0051414,67.9389712 C94.4002704,68.1966825 95.6060453,69.0670174 96.29,70.31 C96.6983826,70.9953877 96.8573551,71.8008483 96.74,72.59 C96.6666033,73.3471937 96.120115,73.9740479 95.38,74.15 L95.38,74.15 Z" id="Hair" fill="#A883F8" fill-rule="nonzero"></path>
            <path d="M94.11,83.41 L93.84,83.41 C93.7749384,83.3893116 93.7050616,83.3893116 93.64,83.41 C93.5799439,83.4671053 93.5471878,83.5471758 93.55,83.63 C93.4649475,84.6014753 93.4649475,85.5785247 93.55,86.55 L93.55,86.55 C91.7812926,85.9859712 90.6530408,84.2559852 90.85,82.41 C91.9090678,82.8563937 93.0116555,83.1915267 94.14,83.41 L94.11,83.41 Z" id="Path" fill="#E0A091" fill-rule="nonzero"></path>
            <rect id="Rectangle" fill="#FFFFFF" fill-rule="nonzero" transform="translate(86.872347, 102.701323) rotate(-19.530000) translate(-86.872347, -102.701323) " x="81.572347" y="90.2263233" width="10.6" height="24.95" rx="5.3"></rect>
            <path d="M234.92,94.57 C230.63,174.99 176.81,196.01 176.81,196.01 C117.06,160.41 117.359985,90.89 117.359985,90.89 C155.44,80.61 177.22,59.58 177.9,58.89 L177.9,58.89 C192.1,79.58 234.92,94.57 234.92,94.57 Z" id="Path" fill="#2C3E50" fill-rule="nonzero"></path>
            <path d="M234.92,94.25 C230.63,174.67 176.81,195.69 176.81,195.69 C117.06,160.09 117.359985,90.57 117.359985,90.57 C155.46,80.31 177.24,59.31 177.92,58.61 L177.92,58.61 C192.1,79.31 234.92,94.25 234.92,94.25 Z" id="Path" fill="url(#linearGradient-1)" fill-rule="nonzero"></path>
            <path d="M111.92,101.31 C112.42,100.94 112.92,100.53 113.34,100.13 C114.426345,99.1496199 115.65326,98.3372944 116.98,97.72 C118.312436,97.0999569 119.805155,96.9111821 121.25,97.18 C121.56,97.24 121.93,97.43 121.89,97.75 C121.85,98.07 121.67,98.09 121.48,98.19 C120.638915,98.6563167 119.750576,99.0317657 118.83,99.31 C118.45,99.42 118.01,99.56 117.83,99.93 C118.137759,99.9642758 118.449273,99.9266202 118.74,99.82 C119.879601,99.5322108 121.061015,99.4475823 122.23,99.57 C122.34,99.57 122.47,99.57 122.53,99.71 C122.59,99.85 122.53,100.01 122.35,100.1 C121.23,100.99 119.55,100.93 118.48,101.89 C118.29,102.05 118.15,102.39 118.36,102.52 C118.447547,102.549717 118.542453,102.549717 118.63,102.52 C119.09,102.52 119.54,102.33 120,102.25 C120.734715,102.105145 121.488558,102.084862 122.23,102.19 C122.32926,102.193482 122.422952,102.236725 122.49,102.31 C122.6,102.48 122.37,102.67 122.19,102.76 L118.32,104.45 C118.852374,104.495231 119.387626,104.495231 119.92,104.45 C120.462101,104.419417 120.996364,104.590381 121.42,104.93 C121.454387,104.947415 121.47715,104.98156 121.48,105.02 C121.48,105.09 121.48,105.13 121.37,105.16 C120.751189,105.494207 120.070589,105.698387 119.37,105.76 C118.953646,105.791794 118.541561,105.8655 118.14,105.98 C117.896303,106.070326 117.659081,106.177243 117.43,106.3 C116.685853,106.695256 115.881804,106.965524 115.05,107.1 C114.214815,107.241627 113.35625,107.100878 112.61,106.7 C112.410599,106.573638 112.199653,106.46649 111.98,106.38 C111.18,106.16 110.29,106.99 109.55,106.6 C109.301776,106.430811 109.101884,106.199902 108.97,105.93 C108.57,105.27 107.23,103.43 108.31,102.82 C108.917319,102.582635 109.538456,102.382268 110.17,102.22 C110.78656,101.985359 111.373818,101.679984 111.92,101.31 L111.92,101.31 Z" id="Path" fill="#FFBAA8" fill-rule="nonzero"></path>
            <path d="M95.18,103.44 L108.42,102.17 L110.56,108.63 C110.56,108.63 91.21,116.5 87.45,114.31 C83.69,112.12 87.18,108.55 87.18,108.55 C87.18,108.55 87.62,103.31 95.18,103.44 Z" id="Path" fill="#FFFFFF" fill-rule="nonzero"></path>
            <path d="M227.97,98.47 C224.18,169.35 176.75,187.88 176.75,187.88 C124.09,156.5 124.349987,95.23 124.349987,95.23 C157.92,86.17 177.11,67.63 177.71,67.06 L177.71,67.06 C190.21,85.31 227.97,98.47 227.97,98.47 Z" id="Path" fill="#2C3E50" fill-rule="nonzero"></path>
            <path d="M177.72,67.05 L176.72,187.88 C124.06,156.5 124.319987,95.23 124.319987,95.23 C157.89,86.17 177.08,67.63 177.68,67.06 L177.72,67.05 Z" id="Path" fill="url(#linearGradient-2)" fill-rule="nonzero"></path>
            <circle id="Oval" fill="#473F47" fill-rule="nonzero" cx="176.75" cy="118.85" r="9.29"></circle>
            <polygon id="Path" fill="#473F47" fill-rule="nonzero" points="171.16 142.02 181.17 142.02 178.33 127.14 174.68 127.14"></polygon>
            <polyline id="Path" stroke="#FFFFFF" stroke-width="0.96" opacity="0.18" points="126.88 115.45 138.83 115.45 138.83 106.78 148.3 106.78"></polyline>
            <polyline id="Path" stroke="#FFFFFF" stroke-width="0.96" opacity="0.18" points="129.22 124.74 144.78 124.74 144.78 143.66 154.52 143.66"></polyline>
            <polyline id="Path" stroke="#FFFFFF" stroke-width="0.96" opacity="0.18" points="226.98 109.56 207.28 109.56 207.28 98.39 189.69 98.39"></polyline>
            <polyline id="Path" stroke="#FFFFFF" stroke-width="0.96" opacity="0.18" points="223.31 128.14 204.12 128.14 204.12 147.81 190.59 147.81"></polyline>
            <polyline id="Path" stroke="#FFFFFF" stroke-width="0.96" opacity="0.18" points="148.3 162.76 164.4 162.76 164.4 155.2 174.14 155.2"></polyline>
            <path d="M136.58,87.08 C136.969701,87.2251728 137.40805,87.1359514 137.71,86.85 C138.15,86.34 137.8,85.57 137.44,85 C137.78,84.74 138.27,85.07 138.53,85.42 C138.79,85.77 139.1,86.19 139.53,86.14 C139.96,86.09 140.2,85.5 140.09,85.06 C139.917315,84.6313847 139.699416,84.2224059 139.44,83.84 C139.63,83.58 140.05,83.84 140.22,84.09 C140.39,84.34 140.62,84.72 140.93,84.65 C141.18203,84.5366286 141.313674,84.2563539 141.24,83.99 C141.164281,83.73113 141.107465,83.467102 141.07,83.2 C141.6,83.03 142.21,83.58 142.7,83.32 C142.873776,83.1906147 142.984071,82.9932143 143.00317,82.7774044 C143.022268,82.5615945 142.948353,82.3478923 142.8,82.19 C142.484278,81.884177 142.0766,81.6908814 141.64,81.64 C140.560627,81.4100446 139.4355,81.5436535 138.44,82.02 C137.29,82.48 136.09,82.72 134.97,83.3 C133.935615,83.7385606 133.025391,84.4255217 132.32,85.3 C132.205252,85.5008483 132.261467,85.7559764 132.45,85.89 C132.599208,85.9402992 132.760792,85.9402992 132.91,85.89 C133.705112,85.7406777 134.527414,85.8789095 135.23,86.28 C135.607748,86.5446569 136.001869,86.7851377 136.41,87 L136.58,87.08 Z" id="Path" fill="#FFBAA8" fill-rule="nonzero"></path>
            <path d="M285.74,93.31 C274.86,70.11 224.82,52.53 164.92,52.53 C97.08,52.53 41.92,75.07 41.92,102.78 C41.92,130.49 97.11,153.03 164.92,153.03 C211.16,153.03 251.52,142.56 272.54,127.12 C275.564767,124.936386 278.341317,122.428103 280.82,119.64 C284.081882,116.11668 286.379293,111.811187 287.49,107.14 C287.792823,105.706347 287.946972,104.245283 287.95,102.78 C287.924915,99.4984811 287.170008,96.2636541 285.74,93.31 Z M279.85,119.55 C277.693524,121.917576 275.316086,124.074013 272.75,125.99 C252.17,141.57 211.55,152.19 164.9,152.19 C97.53,152.19 42.71,130.03 42.71,102.78 C42.71,75.53 97.53,53.36 164.92,53.36 C224.06,53.36 273.52,70.44 284.73,93.04 C286.270714,96.0571331 287.08568,99.3923311 287.110086,102.78 C287.11356,103.964067 287.006428,105.145875 286.79,106.31 C285.97,110.93 283.59,115.37 279.85,119.55 Z" id="Shape" fill="#FFFFFF" fill-rule="nonzero"></path>
            <path d="M289.48,100.5 C289.40484,99.6906056 289.284654,98.886026 289.12,98.09 C288.817124,96.6714771 288.388773,95.28268 287.84,93.94 L287.66,93.88 C287.03,93.68 286.38,93.5 285.74,93.31 C274.86,70.11 224.82,52.53 164.92,52.53 C97.08,52.53 41.92,75.07 41.92,102.78 C41.92,130.49 97.11,153.03 164.92,153.03 C211.16,153.03 251.52,142.56 272.54,127.12 C272.499748,127.727376 272.705118,128.325471 273.11,128.78 C276.913834,126.09922 280.335217,122.913331 283.28,119.31 C285.663756,116.402429 287.469518,113.065843 288.6,109.48 C289.263536,107.311995 289.600001,105.057273 289.600001,102.79 C289.600001,102.025089 289.560203,101.260695 289.48,100.5 Z M164.92,152.19 C97.55,152.19 42.73,130.03 42.73,102.78 C42.73,75.53 97.53,53.36 164.92,53.36 C224.06,53.36 273.52,70.44 284.73,93.04 C284.146925,92.9265118 283.542475,93.0296238 283.03,93.33 C284.581451,96.2404128 285.408154,99.4820477 285.44,102.78 C285.44,103.542101 285.391758,104.303441 285.3,105.06 C284.71,109.88 282.3,114.6 278.1,119.06 C276.527167,120.736713 274.828923,122.291208 273.02,123.71 C273.140956,124.138291 273.140956,124.591709 273.02,125.02 C272.93,125.34 272.83,125.66 272.74,126.02 C252.17,141.57 211.55,152.19 164.92,152.19 Z" id="Shape" fill="#2C3E50" fill-rule="nonzero" opacity="0.18"></path>
            <path d="M284.71,93.04 C284.126925,92.9265118 283.522475,93.0296238 283.01,93.33 C278.41,84.42 267.3,76.14 250.63,69.4 C227.72,60.14 197.27,55.04 164.92,55.04 C132.57,55.04 102.09,60.14 79.18,69.4 C56.73,78.47 44.38,90.31 44.38,102.78 C44.38,115.25 56.73,127.08 79.16,136.15 C102.07,145.42 132.52,150.52 164.9,150.52 C197.28,150.52 227.72,145.42 250.63,136.15 C259.84,132.43 267.34,128.25 273,123.72 C273.120956,124.148291 273.120956,124.601709 273,125.03 C272.91,125.35 272.81,125.67 272.72,126.03 C252.14,141.61 211.52,152.23 164.87,152.23 C97.5,152.23 42.68,130.07 42.68,102.82 C42.68,75.57 97.53,53.36 164.92,53.36 C224.04,53.36 273.5,70.44 284.71,93.04 Z" id="Path" fill="#2C3E50" fill-rule="nonzero" opacity="0.18"></path>
            <path d="M287.84,93.94 L287.66,93.88 C287.03,93.68 286.38,93.5 285.74,93.31 C274.86,70.11 224.82,52.53 164.92,52.53 C97.08,52.53 41.92,75.07 41.92,102.78 C41.92,130.49 97.11,153.03 164.92,153.03 C211.16,153.03 251.52,142.56 272.54,127.12 C272.499748,127.727376 272.705118,128.325471 273.11,128.78 C266.699411,133.267939 259.781567,136.983637 252.5,139.85 C229.03,149.43 197.92,154.7 164.92,154.7 C131.92,154.7 100.79,149.43 77.34,139.85 C53.4,130.07 40.22,116.9 40.22,102.78 C40.22,88.66 53.38,75.49 77.32,65.72 C100.77,56.13 131.92,50.86 164.92,50.86 C197.92,50.86 229.05,56.13 252.5,65.72 C271.34,73.42 283.52,83.22 287.84,93.94 Z" id="Path" fill="#2C3E50" fill-rule="nonzero" opacity="0.18"></path>
            <ellipse id="Oval" fill="#2C3E50" fill-rule="nonzero" opacity="0.35" cx="159.49" cy="186.07" rx="96.23" ry="15.86"></ellipse>
            <g id="Group" transform="translate(0.920000, 0.310000)"></g>
            <polygon id="Path" fill="#FFFFFF" fill-rule="nonzero" points="138.32 67.56 114.75 67.56 114.75 38.46 135.07 38.46 138.32 42.61"></polygon>
            <polygon id="Path" fill="#FFFFFF" fill-rule="nonzero" points="136.23 69.28 112.66 69.28 112.66 40.18 132.98 40.18 136.23 44.33"></polygon>
            <polygon id="Path" fill="url(#linearGradient-3)" fill-rule="nonzero" points="136.03 69.48 112.46 69.48 112.46 40.38 132.78 40.38 136.03 44.53"></polygon>
            <polygon id="Path" fill="#FFFFFF" fill-rule="nonzero" points="133.96 71.89 110.39 71.89 110.39 42.78 130.71 42.78 133.96 46.93"></polygon>
            <polygon id="Path" fill="url(#linearGradient-4)" fill-rule="nonzero" points="130.71 42.78 130.71 46.89 133.96 46.89"></polygon>
            <polygon id="Path" fill="url(#linearGradient-5)" fill-rule="nonzero" points="132.78 40.38 132.78 44.61 136.03 44.61"></polygon>
            <polygon id="Path" fill="url(#linearGradient-6)" fill-rule="nonzero" points="135.07 38.46 135.07 42.69 138.32 42.69"></polygon>
            <g id="Q83r0t" transform="translate(263.000000, 92.000000)" fill="#2C3E50" fill-rule="nonzero">
                <path d="M24.85,36.83 C24.218533,36.6684994 23.6825049,36.251991 23.37,35.68 C23.13,35.27 22.91,34.84 22.67,34.43 C22.2472138,33.5889073 21.3303473,33.1163374 20.4,33.26 C19.4508412,33.3217649 18.6464954,33.9813285 18.4,34.9 C18.25,35.39 18.13,35.9 17.96,36.37 C17.5619523,37.6302842 16.2264044,38.3381247 14.96,37.96 L12.21,37.15 C11.5733666,36.9780817 11.0334263,36.5557994 10.713175,35.9793472 C10.3929238,35.402895 10.3196337,34.7213625 10.51,34.09 C10.64,33.59 10.81,33.09 10.93,32.61 C11.1923183,31.7281145 10.8672055,30.7768584 10.12,30.24 C9.43945744,29.6425255 8.45354936,29.5459468 7.67,30 C7.24,30.21 6.83,30.46 6.41,30.68 C5.8265073,31.0058691 5.13651111,31.0834991 4.49519641,30.8954302 C3.85388171,30.7073614 3.31509025,30.2693832 3,29.68 C2.52,28.81 2,27.95 1.57,27.08 C1.22728387,26.5034174 1.14036256,25.8100922 1.33013849,25.1667518 C1.51991442,24.5234114 1.96921698,23.9882642 2.57,23.69 C2.97,23.46 3.39,23.26 3.78,23.03 C4.58703398,22.6199883 5.05081148,21.7484065 4.94,20.85 C4.90569559,19.9199189 4.28210485,19.1152857 3.39,18.85 C2.91,18.69 2.39,18.57 1.92,18.41 C1.2554992,18.2351963 0.695499623,17.7883193 0.377601676,17.1791735 C0.0597037292,16.5700277 0.0133753048,15.8550786 0.25,15.21 C0.5,14.34 0.75,13.47 1.01,12.6 C1.33907192,11.3403423 2.6124524,10.5727645 3.88,10.87 C4.4,10.97 4.88,11.14 5.41,11.28 C6.32650676,11.5914916 7.33987813,11.2930686 7.94128924,10.5345725 C8.54270035,9.77607643 8.60223493,8.72135683 8.09,7.9 C7.87,7.51 7.65,7.12 7.45,6.73 C7.14486372,6.16773477 7.07892824,5.5063029 7.26706283,4.89486549 C7.45519742,4.28342807 7.88155981,3.77347247 8.45,3.48 C9.38,2.95 10.32,2.48 11.28,1.96 C12.4602466,1.38025421 13.8878448,1.81816775 14.54,2.96 C14.79,3.39 15.01,3.83 15.26,4.26 C15.6831632,5.05969063 16.5653475,5.50479272 17.46,5.37 C18.3806843,5.31372037 19.1640363,4.67900438 19.41,3.79 C19.56,3.34 19.68,2.87 19.82,2.42 C19.9933303,1.74596355 20.4419072,1.17577707 21.0562052,0.848658622 C21.6705032,0.521540178 22.3939837,0.467597007 23.05,0.7 L25.61,1.45 C26.2686864,1.61264439 26.831469,2.03907385 27.1662494,2.62919507 C27.5010297,3.2193163 27.5783278,3.92116488 27.38,4.57 C27.26,5.01 27.12,5.46 26.99,5.9 C26.67174,6.80175197 26.9753644,7.80573663 27.74,8.38 C28.467911,9.0007275 29.5115962,9.08535063 30.33,8.59 C30.72,8.38 31.11,8.15 31.5,7.95 C32.0806897,7.63373111 32.7633299,7.56142035 33.3973926,7.74901287 C34.0314554,7.9366054 34.564865,8.36869421 34.88,8.95 C35.38,9.84 35.88,10.74 36.36,11.64 C36.6793498,12.2104872 36.7532187,12.8862394 36.564662,13.5122476 C36.3761053,14.1382558 35.9413054,14.6607945 35.36,14.96 C34.93,15.2 34.48,15.41 34.05,15.66 C33.3117676,16.0442161 32.8718387,16.8298034 32.93,17.66 C32.9257564,18.5468709 33.4714914,19.3435643 34.3,19.66 C34.8,19.86 35.3,19.99 35.86,20.15 C36.4811719,20.2896283 37.0141102,20.6858854 37.3266979,21.2405379 C37.6392856,21.7951905 37.7022565,22.456309 37.5,23.06 C37.24,24.06 36.95,25.06 36.63,26.06 C36.4673313,26.6958205 36.041886,27.2324332 35.4599189,27.5358193 C34.8779518,27.8392055 34.1944072,27.8807219 33.58,27.65 C33.12,27.52 32.67,27.37 32.2,27.26 C31.3299452,27.0257748 30.4063791,27.361617 29.89,28.1 C29.3120078,28.7758416 29.2276128,29.7443743 29.68,30.51 C29.91,30.95 30.17,31.38 30.4,31.81 C30.7197448,32.3819983 30.7938521,33.0592136 30.6053799,33.6868258 C30.4169078,34.314438 29.9819704,34.838787 29.4,35.14 C28.51,35.64 27.61,36.14 26.71,36.61 C26.1457524,36.9333338 25.47411,37.0127754 24.85,36.83 Z M11.34,17.07 C10.4319001,20.1419572 11.4637366,23.458455 13.954359,25.4729938 C16.4449815,27.4875325 19.9038956,27.8033762 22.7181924,26.2732454 C25.5324891,24.7431146 27.147931,21.6683476 26.8112293,18.4827238 C26.4745276,15.2971001 24.2519912,12.6279849 21.18,11.72 C19.1656294,11.1190586 16.9948184,11.345719 15.1480341,12.3498141 C13.3012497,13.3539093 11.9307974,15.0526309 11.34,17.07 L11.34,17.07 Z" id="Shape"></path>
            </g>
            <g id="Q83r0t-2" opacity="0.27" transform="translate(263.000000, 92.000000)" fill="#020202" fill-rule="nonzero">
                <path d="M24.85,36.83 C24.218533,36.6684994 23.6825049,36.251991 23.37,35.68 C23.13,35.27 22.91,34.84 22.67,34.43 C22.2472138,33.5889073 21.3303473,33.1163374 20.4,33.26 C19.4508412,33.3217649 18.6464954,33.9813285 18.4,34.9 C18.25,35.39 18.13,35.9 17.96,36.37 C17.5619523,37.6302842 16.2264044,38.3381247 14.96,37.96 L12.21,37.15 C11.5733666,36.9780817 11.0334263,36.5557994 10.713175,35.9793472 C10.3929238,35.402895 10.3196337,34.7213625 10.51,34.09 C10.64,33.59 10.81,33.09 10.93,32.61 C11.1923183,31.7281145 10.8672055,30.7768584 10.12,30.24 C9.43945744,29.6425255 8.45354936,29.5459468 7.67,30 C7.24,30.21 6.83,30.46 6.41,30.68 C5.8265073,31.0058691 5.13651111,31.0834991 4.49519641,30.8954302 C3.85388171,30.7073614 3.31509025,30.2693832 3,29.68 C2.52,28.81 2,27.95 1.57,27.08 C1.22728387,26.5034174 1.14036256,25.8100922 1.33013849,25.1667518 C1.51991442,24.5234114 1.96921698,23.9882642 2.57,23.69 C2.97,23.46 3.39,23.26 3.78,23.03 C4.58703398,22.6199883 5.05081148,21.7484065 4.94,20.85 C4.90569559,19.9199189 4.28210485,19.1152857 3.39,18.85 C2.91,18.69 2.39,18.57 1.92,18.41 C1.2554992,18.2351963 0.695499623,17.7883193 0.377601676,17.1791735 C0.0597037292,16.5700277 0.0133753048,15.8550786 0.25,15.21 C0.5,14.34 0.75,13.47 1.01,12.6 C1.33907192,11.3403423 2.6124524,10.5727645 3.88,10.87 C4.4,10.97 4.88,11.14 5.41,11.28 C6.32650676,11.5914916 7.33987813,11.2930686 7.94128924,10.5345725 C8.54270035,9.77607643 8.60223493,8.72135683 8.09,7.9 C7.87,7.51 7.65,7.12 7.45,6.73 C7.14486372,6.16773477 7.07892824,5.5063029 7.26706283,4.89486549 C7.45519742,4.28342807 7.88155981,3.77347247 8.45,3.48 C9.38,2.95 10.32,2.48 11.28,1.96 C12.4602466,1.38025421 13.8878448,1.81816775 14.54,2.96 C14.79,3.39 15.01,3.83 15.26,4.26 C15.6831632,5.05969063 16.5653475,5.50479272 17.46,5.37 C18.3806843,5.31372037 19.1640363,4.67900438 19.41,3.79 C19.56,3.34 19.68,2.87 19.82,2.42 C19.9933303,1.74596355 20.4419072,1.17577707 21.0562052,0.848658622 C21.6705032,0.521540178 22.3939837,0.467597007 23.05,0.7 L25.61,1.45 C26.2686864,1.61264439 26.831469,2.03907385 27.1662494,2.62919507 C27.5010297,3.2193163 27.5783278,3.92116488 27.38,4.57 C27.26,5.01 27.12,5.46 26.99,5.9 C26.67174,6.80175197 26.9753644,7.80573663 27.74,8.38 C28.467911,9.0007275 29.5115962,9.08535063 30.33,8.59 C30.72,8.38 31.11,8.15 31.5,7.95 C32.0806897,7.63373111 32.7633299,7.56142035 33.3973926,7.74901287 C34.0314554,7.9366054 34.564865,8.36869421 34.88,8.95 C35.38,9.84 35.88,10.74 36.36,11.64 C36.6793498,12.2104872 36.7532187,12.8862394 36.564662,13.5122476 C36.3761053,14.1382558 35.9413054,14.6607945 35.36,14.96 C34.93,15.2 34.48,15.41 34.05,15.66 C33.3117676,16.0442161 32.8718387,16.8298034 32.93,17.66 C32.9257564,18.5468709 33.4714914,19.3435643 34.3,19.66 C34.8,19.86 35.3,19.99 35.86,20.15 C36.4811719,20.2896283 37.0141102,20.6858854 37.3266979,21.2405379 C37.6392856,21.7951905 37.7022565,22.456309 37.5,23.06 C37.24,24.06 36.95,25.06 36.63,26.06 C36.4673313,26.6958205 36.041886,27.2324332 35.4599189,27.5358193 C34.8779518,27.8392055 34.1944072,27.8807219 33.58,27.65 C33.12,27.52 32.67,27.37 32.2,27.26 C31.3299452,27.0257748 30.4063791,27.361617 29.89,28.1 C29.3120078,28.7758416 29.2276128,29.7443743 29.68,30.51 C29.91,30.95 30.17,31.38 30.4,31.81 C30.7197448,32.3819983 30.7938521,33.0592136 30.6053799,33.6868258 C30.4169078,34.314438 29.9819704,34.838787 29.4,35.14 C28.51,35.64 27.61,36.14 26.71,36.61 C26.1457524,36.9333338 25.47411,37.0127754 24.85,36.83 Z M11.34,17.07 C10.4319001,20.1419572 11.4637366,23.458455 13.954359,25.4729938 C16.4449815,27.4875325 19.9038956,27.8033762 22.7181924,26.2732454 C25.5324891,24.7431146 27.147931,21.6683476 26.8112293,18.4827238 C26.4745276,15.2971001 24.2519912,12.6279849 21.18,11.72 C19.1656294,11.1190586 16.9948184,11.345719 15.1480341,12.3498141 C13.3012497,13.3539093 11.9307974,15.0526309 11.34,17.07 L11.34,17.07 Z" id="Shape"></path>
            </g>
            <g id="Q83r0t-3" transform="translate(262.000000, 93.000000)" fill="#2C3E50" fill-rule="nonzero">
                <path d="M35.92,19.6 C35.41,19.44 34.87,19.32 34.37,19.11 C33.5414914,18.7935643 32.9957564,17.9968709 33,17.11 C32.9463387,16.2781467 33.3897734,15.4933066 34.13,15.11 C34.55,14.87 35,14.65 35.43,14.41 C36.0113054,14.1107945 36.4461053,13.5882558 36.634662,12.9622476 C36.8232187,12.3362394 36.7493498,11.6604872 36.43,11.09 C35.95,10.19 35.43,9.29 34.95,8.41 C34.634865,7.82869421 34.1014554,7.3966054 33.4673926,7.20901287 C32.8333299,7.02142035 32.1506897,7.09373111 31.57,7.41 L30.4,8.05 C29.5836994,8.54812163 28.5401492,8.4675386 27.81,7.85 C27.7,7.75 27.6,7.65 27.5,7.54 C26.9638107,6.94943299 26.7948491,6.1123054 27.06,5.36 C27.06,5.29 27.11,5.2 27.14,5.13 C27.24,4.76 27.35,4.4 27.44,4.03 C27.8393601,2.75202985 27.134285,1.39096714 25.86,0.98 L25.68,0.92 C25.05,0.72 24.4,0.54 23.76,0.35 L23.11,0.16 L22.73,0.08 C22.1469247,-0.0334882136 21.5424749,0.0696238187 21.03,0.37 C20.489765,0.704580021 20.0939163,1.228812 19.92,1.84 C19.77,2.3 19.65,2.76 19.51,3.22 C19.2491504,4.11818106 18.4444317,4.74988529 17.51,4.79 C16.6181484,4.9234934 15.7383162,4.4835773 15.31,3.69 C15.05,3.26 14.84,2.82 14.59,2.38 C13.9450467,1.23534252 12.5168769,0.795905654 11.34,1.38 C10.34,1.85 9.43,2.38 8.5,2.89 C7.93155981,3.18347247 7.50519742,3.69342807 7.31706283,4.30486549 C7.12892824,4.9163029 7.19486372,5.57773477 7.5,6.14 C7.7,6.54 7.93,6.92 8.14,7.31 C8.6734023,8.1279281 8.61261669,9.19775479 7.99,9.95 C7.39717329,10.7202023 6.3768046,11.0226831 5.46,10.7 C4.95,10.55 4.46,10.38 3.93,10.28 C2.6624524,9.98276451 1.38907192,10.7503423 1.06,12.01 C0.81,12.88 0.55,13.75 0.3,14.63 C0.0637243015,15.2751281 0.111579646,15.9901257 0.431720602,16.5980123 C0.751861559,17.205899 1.31436615,17.6498587 1.98,17.82 C2.46,17.99 2.98,18.09 3.44,18.26 C4.32849119,18.5305463 4.94969971,19.3321057 4.99,20.26 C5.10871778,21.1571851 4.64753199,22.0314329 3.84,22.44 C3.44,22.67 3.02,22.88 2.62,23.1 C2.01921698,23.3982642 1.56991442,23.9334114 1.38013849,24.5767518 C1.19036256,25.2200922 1.27728387,25.9134174 1.62,26.49 C2.09,27.36 2.57,28.23 3.05,29.09 C3.36904657,29.6753546 3.90785257,30.10974 4.54756887,30.2973401 C5.18728518,30.4849402 5.87535327,30.4103419 6.46,30.09 C6.88,29.86 7.29,29.62 7.72,29.4 C8.5048945,28.9521936 9.48692563,29.0483926 10.17,29.64 C10.5333916,29.9106557 10.8083232,30.2830315 10.96,30.71 C11.0809556,31.1382906 11.0809556,31.5917094 10.96,32.02 C10.87,32.34 10.77,32.66 10.68,33.02 L10.53,33.53 C10.329036,34.3248313 10.5102251,35.1679152 11.02,35.81 C11.332595,36.1913886 11.7550845,36.4672289 12.23,36.6 L14.98,37.4 C16.2458309,37.7723864 17.5775256,37.0665882 17.98,35.81 C18.15,35.33 18.27,34.81 18.42,34.34 C18.6718411,33.4247902 19.4731887,32.7676852 20.42,32.7 C21.3464231,32.5641877 22.2561,33.0351266 22.68,33.87 C22.92,34.28 23.14,34.71 23.37,35.13 C24.0366685,36.3153869 25.5236505,36.7579411 26.73,36.13 C27.63,35.64 28.53,35.13 29.42,34.66 C30.0013054,34.3607945 30.4361053,33.8382558 30.624662,33.2122476 C30.8132187,32.5862394 30.7393498,31.9104872 30.42,31.34 C30.18,30.9 29.92,30.48 29.7,30.04 C29.2385182,29.277936 29.3192125,28.3055686 29.9,27.63 C30.4174563,26.8927413 31.3380904,26.5539798 32.21,26.78 C32.68,26.89 33.13,27.05 33.59,27.18 C34.1982383,27.3971471 34.8697487,27.3485619 35.4403936,27.0461201 C36.0110386,26.7436782 36.4282323,26.2152503 36.59,25.59 C36.92,24.59 37.21,23.59 37.47,22.59 C37.6979136,21.9889452 37.6590908,21.319275 37.3632476,20.748584 C37.0674044,20.177893 36.5425367,19.7601859 35.92,19.6 L35.92,19.6 Z M26.62,20.94 C25.5882028,24.3798613 22.3905801,26.7106093 18.8,26.64 C18.4814461,26.6352692 18.163775,26.6051741 17.85,26.55 C17.4885987,26.4973061 17.1311322,26.4204675 16.78,26.32 C16.5415865,26.2516412 16.307778,26.1681382 16.08,26.07 C12.1554621,24.5015201 10.1572181,20.1249803 11.5425526,16.1321147 C12.9278871,12.1392491 17.2073484,9.94077449 21.26,11.14 C21.9671445,11.3496788 22.6406395,11.6594865 23.26,12.06 C23.8124126,12.4053033 24.3139187,12.8260298 24.75,13.31 C25.0049582,13.5676808 25.2390288,13.8452217 25.45,14.14 C25.9490322,14.8511297 26.3305614,15.6378227 26.58,16.47 C27.0285691,17.9242775 27.042472,19.4779279 26.62,20.94 L26.62,20.94 Z" id="Shape"></path>
            </g>
        </g>
    </g>
</svg>