<?xml version="1.0" encoding="UTF-8"?>
<svg width="457.333333333px" height="296px" viewBox="0 0 343 222" version="1.1" xmlns="http://www.w3.org/2000/svg" xmlns:xlink="http://www.w3.org/1999/xlink">
    <title>video_call_two_color</title>
    <g id="页面-1" stroke="none" stroke-width="1" fill="none" fill-rule="evenodd">
        <g id="video_call_two_color" fill-rule="nonzero">
            <path d="M29.64,134.44 C29.64,132.93 6.44,86.44 52.84,55.56 C99.24,24.68 130.92,26.83 163.18,48.06 C195.44,69.29 398,34.31 316.53,197.12 L258.86,203.37 L103.55,199.25 L29.64,134.44 Z" id="Path" fill="#E6E6E6" opacity="0.18"></path>
            <path d="M310.54,181 C310.54,181 298,177.6 295.17,165.91 C295.17,165.91 314.64,161.91 315.27,182 L310.54,181 Z" id="Path" fill="#2C3E50" opacity="0.58"></path>
            <path d="M312.08,179.73 C312.08,179.73 303.24,165.88 310.91,152.86 C310.91,152.86 325.76,162.21 319.26,179.73 L312.08,179.73 Z" id="Path" fill="#2C3E50" opacity="0.73"></path>
            <path d="M314.34,179.73 C314.34,179.73 318.92,165.04 332.94,162.21 C332.94,162.21 335.61,171.72 323.94,179.73 L314.34,179.73 Z" id="Path" fill="#2C3E50"></path>
            <polygon id="Path" fill="#24285B" points="305.22 179.44 307.84 196.86 323.9 196.86 326.19 179.44"></polygon>
            <polygon id="Path" fill="#C9C9C9" points="265.73 196.86 278.06 155.07 218.17 155.07 209.48 189.17 187.78 190.33 187.78 196.86"></polygon>
            <rect id="Rectangle" fill="#E6E6E6" x="15.27" y="196.86" width="327.73" height="13.02"></rect>
            <rect id="Rectangle" fill="#A5A5A5" opacity="0.4" x="15.27" y="209.89" width="327.73" height="11.66"></rect>
            <path d="M69.12,125.29 C69.12,125.29 92.74,108.29 120.3,111.82 C147.86,115.35 158.44,122.26 160.39,154.65 C162.34,187.04 147.1,221.54 147.1,221.54 L101.92,221.13 L69.12,125.29 Z" id="Path" fill="#2C3E50"></path>
            <path d="M86.18,116.52 C86.18,116.52 109.02,128.45 111.36,159.18 C113.7,189.91 117.84,211.96 150.85,211.8 L147.1,221.54 L101.92,221.13 L69.12,125.29 C69.12,125.29 79.53,118.73 86.18,116.52 Z" id="Path" fill="#000000" opacity="0.08"></path>
            <path d="M10.47,221.13 L101.91,221.13 C101.91,221.13 104.02,169.45 87.72,139.77 C71.42,110.09 -32.66,113.17 10.47,221.13 Z" id="Path" fill="#24285B"></path>
            <polygon id="Path" fill="#F4A28C" points="93.13 98.63 98.75 112.81 86.18 116.52 82.7 95.39"></polygon>
            <path d="M77.74,84.4 C80.07,78.54 87.82,77.27 92.17,81.83 C96.95,86.83 102.73,94.83 96.33,99.23 C86.53,106.02 77.33,93.61 77.33,93.61 C76.5565149,90.5666316 76.6991482,87.3625999 77.74,84.4 Z" id="Path" fill="#F4A28C"></path>
            <path d="M81.34,93.13 C81.34,93.13 78.19,92.13 78.34,95.36 C78.49,98.59 83.12,98.19 83.77,96.28 C84.42,94.37 81.34,93.13 81.34,93.13 Z" id="Path" fill="#F4A28C"></path>
            <path d="M121.2,138 C118.93,124.27 134.41,114.58 145.79,122.59 C153.1,127.74 160.05,135.76 163.79,148.27 C174.15,182.68 192.71,203.27 240.31,191.58 L243.16,203.86 C243.16,203.86 138,239.47 121.2,138 Z" id="Path" fill="#F4A28C"></path>
            <path d="M75.44,90.17 C75.44,90.17 77.96,101.28 83.81,101.260027 C89.66,101.24 89.2,97.49 88,90.17 C86.8,82.85 95.49,85.02 94.32,76.66 C93.15,68.3 92.59,68.66 84.94,69.15 C77.29,69.64 67.59,76.11 75.44,90.17 Z" id="Path" fill="#C3C4FD"></path>
            <path d="M243.79,190 C243.79,190 249.46,186.73 254.43,188 C259.4,189.27 260.04,196.41 255.32,198.73 L245.87,203.37 L243.79,190 Z" id="Path" fill="#F4A28C"></path>
            <rect id="Rectangle" fill="#24285B" x="175.8" y="7.61" width="141.32" height="108.14"></rect>
            <polygon id="Path" fill="#F4A28C" points="251.85 18.01 260.67 37.43 249.19 45.94 246.91 27.67"></polygon>
            <path d="M247,28.19 C247,28.19 254.21,27.07 255.13,24.94 C255.13,24.94 261.19,35.87 248.13,36.94 L247,28.19 Z" id="Path" fill="#CE8172" opacity="0.31"></path>
            <path d="M242.19,52.52 C242.19,52.52 183.82,101.86 162.27,43.1 L152.27,49.1 C152.27,49.1 159.27,123.47 246.99,89.71 L242.19,52.52 Z" id="Path" fill="#2C3E50"></path>
            <path d="M242.19,52.52 C242.19,52.52 183.82,101.86 162.27,43.1 L152.27,49.1 C152.27,49.1 159.27,123.47 246.99,89.71 L242.19,52.52 Z" id="Path" fill="#FFFFFF" opacity="0.2"></path>
            <path d="M249.19,45.94 C249.19,45.94 226.8,62.51 233.87,81.55 C240.94,100.59 257,115.75 257,115.75 L317.14,115.75 C317.14,115.75 316.49,100.9 314.74,84.66 C312.22,61.29 303.74,34.21 260.69,37.43 L249.19,45.94 Z" id="Path" fill="#2C3E50"></path>
            <path d="M282.38,52.52 C282.38,52.52 274.38,60.59 277.69,70.82 C281,81.05 292.06,113.6 267.34,110.52 L287.27,112.93 L308.09,110.52 L317.26,88.84 L301.08,66 L282.38,52.52 Z" id="Path" fill="#000000" opacity="0.08"></path>
            <polygon id="Path" fill="#FFFFFF" points="195.83 22.16 195.83 51.71 225.72 35.65"></polygon>
            <polygon id="Path" fill="#C3C4FD" points="232.49 115.75 223.24 79.72 274.88 79.72 279.88 109.12 301.08 110.12 301.08 115.75"></polygon>
            <polygon id="Path" fill="#FFFFFF" points="224.28 160.77 216.76 187.71 259.86 187.71 267.21 160.77"></polygon>
            <circle id="Oval" fill="#FFFFFF" cx="252.85" cy="97.46" r="4.38"></circle>
            <path d="M154,48.08 C154,48.08 145.65,39.91 149.66,33.42 C153.67,26.93 163.26,27.95 162.26,43.1 L154,48.08 Z" id="Path" fill="#F4A28C"></path>
            <path d="M297.19,45 C304.82,48.36 312.79,54.13 317.26,64.06 L317.12,115.8 L306.76,115.8 L302.4,106.9 C302.4,106.9 307.74,85.36 290.88,68.83 C288.464324,66.4815298 286.240552,63.9434208 284.23,61.24 C277.76,52.35 287.17,40.54 297.19,45 Z" id="Path" fill="#2C3E50"></path>
            <path d="M297.19,45 C304.82,48.36 312.79,54.13 317.26,64.06 L317.12,115.8 L306.76,115.8 L302.4,106.9 C302.4,106.9 307.74,85.36 290.88,68.83 C288.464324,66.4815298 286.240552,63.9434208 284.23,61.24 C277.76,52.35 287.17,40.54 297.19,45 Z" id="Path" fill="#FFFFFF" opacity="0.2"></path>
            <path d="M255.07,19.62 C254.970004,21.3919237 254.970004,23.1680763 255.07,24.94 C255.25,27.38 254.85,31.06 251.07,32.17 C245.29,33.89 242.73,24.73 242.73,24.73 C242.73,24.73 238.09,16.38 244.35,14.5 C250.05,12.81 255.39,11.46 255.07,19.62 Z" id="Path" fill="#F4A28C"></path>
            <path d="M239.3,11.53 C237.966116,12.2059233 236.926979,13.3482621 236.38,14.74 C235.744213,16.1400938 235.995241,17.7835456 237.02,18.93 C239.67,21.7 242.79,24.73 242.79,24.73 C242.79,24.73 240.39,20 244.62,20 C248.85,20 252.48,22.81 255.07,19.61 C257.66,16.41 259.34,14.61 258.17,11.61 C257,8.61 257.17,4.67 252.58,6.39 C247.99,8.11 249.77,4.57 247.16,2.29 C244.55,0.01 240.33,0.35 240.7,3.55 C241,6.33 241.93,10.08 239.3,11.53 Z" id="Path" fill="#C3C4FD"></path>
            <path d="M243.2,25.07 C243.2,25.07 242.56,22.27 240.11,22.65 C237.66,23.03 239.18,28.22 243.2,25.07 Z" id="Path" fill="#F4A28C"></path>
            <path d="M254.21,25.1 C254.21,25.1 253.05,22.48 255.21,21.32 C257.37,20.16 259.32,25.24 254.21,25.1 Z" id="Path" fill="#F4A28C"></path>
            <path d="M132.56,172.4 L166.4,156.06 C166.4,156.06 162.12,118.97 132.56,116.52 C103,114.07 122,161.91 132.56,172.4 Z" id="Path" fill="#2C3E50"></path>
            <path d="M132.56,172.4 L166.4,156.06 C166.4,156.06 162.12,118.97 132.56,116.52 C103,114.07 122,161.91 132.56,172.4 Z" id="Path" fill="#FFFFFF" opacity="0.2"></path>
            <polygon id="Path" fill="#A5A5A5" points="235.93 168.04 232.92 179.39 249.96 173.72"></polygon>
            <path d="M306.760034,115.75 C306.773455,110.414327 302.746844,105.934074 297.44,105.38 C294.44,105.08 291.77,105.53 291.06,107.86 C289.3,113.63 301.06,115.75 301.06,115.75 L306.760034,115.75 Z" id="Path" fill="#F4A28C"></path>
            <path d="M86.18,116.52 L91.29,115.02 L87.8,100 C87.8,100 80.96,97.61 81.05,88.59 C81.05,88.59 72.54,81.27 82.2,69.59 C82.2,69.59 73.57,71.13 72.56,79.85 C72.5146922,83.5007367 73.5139489,87.0883459 75.44,90.19 C75.44,90.19 77.98,101.3 83.81,101.28 L86.18,116.52 Z" id="Path" fill="#CE8172" opacity="0.31"></path>
            <rect id="Rectangle" fill="#24285B" transform="translate(240.984875, 198.091557) rotate(-14.100000) translate(-240.984875, -198.091557) " x="236.474875" y="190.381557" width="9.02" height="15.42"></rect>
            <circle id="Oval" fill="#C3C4FD" cx="240.97" cy="198.11" r="5.73"></circle>
            <path d="M144.9,166.44 C144.9,166.44 161.97,217.81 237.06,201.06 L238.14,205.35 C238.14,205.35 162.87,228.61 132.56,172.4 L144.9,166.44 Z" id="Path" fill="#CE8172" opacity="0.31"></path>
            <path d="M144.9,166.44 L132.56,172.44 C132.56,172.44 106.86,136.6 120.98,119.639963 C121,119.6 126.57,152 144.9,166.44 Z" id="Path" fill="#000000" opacity="0.08"></path>
            <path d="M259.45,34.74 C259.45,34.74 247.38,39 246.91,47.83 C246.91,47.83 259.33,47.08 265.19,37.2 C264.014213,35.2201487 261.694573,34.2260171 259.45,34.74 L259.45,34.74 Z" id="Path" fill="#FFFFFF"></path>
        </g>
    </g>
</svg>