<svg xmlns="http://www.w3.org/2000/svg" xmlns:xlink="http://www.w3.org/1999/xlink" width="101.623" height="35.137" viewBox="0 0 101.623 35.137">
  <defs>
    <clipPath id="clip-path">
      <path id="Clip_2" data-name="Clip 2" d="M0,0H101.622V35.137H0Z" transform="translate(0 0)" fill="none"/>
    </clipPath>
  </defs>
  <g id="支付宝-icon" transform="translate(0 0)">
    <path id="Clip_2-2" data-name="Clip 2" d="M0,0H101.622V35.137H0Z" transform="translate(0 0)" fill="none"/>
    <g id="Group_3" data-name="Group 3" clip-path="url(#clip-path)">
      <path id="Fill_1" data-name="Fill 1" d="M29.482,35.137H5.614A5.623,5.623,0,0,1,0,29.509V5.629A5.685,5.685,0,0,1,1.65,1.645,5.564,5.564,0,0,1,5.613,0H29.482A5.622,5.622,0,0,1,35.094,5.63V23.846a39.988,39.988,0,0,1-6.2-1.786c-.914-.306-2.052-.725-2.883-1.031l-.026-.009L25.926,21l-.057-.022-.038-.014-.039-.014-.049-.018-.119-.044-.113-.041-.121-.044-.175-.064L25,20.659l-.1-.036-.012,0-.113-.041c-.537-.2-.907-.334-1.271-.466A28.486,28.486,0,0,0,26.434,12.7H19.519V10.209h8.473V8.816H19.519V4.658H16.061a.593.593,0,0,0-.609.6V8.816H6.882v1.393h8.57V12.7H8.377V14.1H22.1a25.061,25.061,0,0,1-1.976,4.836c-4.4-1.448-7.7-2.153-10.1-2.153A8.538,8.538,0,0,0,7.934,17,6.985,6.985,0,0,0,4.07,19.194a6.016,6.016,0,0,0-.925,6.419A6.123,6.123,0,0,0,5.667,28.29a8.863,8.863,0,0,0,4.47,1.08,12.227,12.227,0,0,0,6-1.633,18.1,18.1,0,0,0,5.217-4.489c4.612,2.221,13.665,6,13.737,6.029v.23a5.622,5.622,0,0,1-5.611,5.63Zm55.667-2.7H83.654l2.932-8.016h1.138l2.943,8.015H89.175l-.533-1.613H85.7l-.554,1.614ZM87.2,26.491l-1.146,3.325H88.3ZM75.909,32.441H74.472V24.425h3.105a2.472,2.472,0,1,1,0,4.934H75.909V32.44Zm0-6.926v2.743H77.5a1.3,1.3,0,0,0,1.271-1.365A1.317,1.317,0,0,0,77.5,25.515ZM61.945,32.441H57.113V24.425H58.55V31.35h3.4V32.44Zm-15.061,0h-1.5l2.932-8.016H49.46L52.4,32.44H50.908l-.533-1.613H47.439l-.554,1.614Zm2.047-5.951-1.146,3.325h2.251Zm19.72,5.949H67.216V24.425h1.436v8.014Zm29.149,0H96.375V29.148l-2.417-4.723h1.551l1.59,3.414,1.567-3.414h1.552l-2.409,4.706-.008.017v3.29ZM9.482,27.018a7.306,7.306,0,0,1-3.635-.854A4.006,4.006,0,0,1,4.032,24.13a3.378,3.378,0,0,1,1.075-3.772,6.929,6.929,0,0,1,3.423-1.273c.365-.033.71-.05,1.026-.05,2.966,0,5.837,1.278,8.761,2.7A15.4,15.4,0,0,1,14.155,25.6,8.96,8.96,0,0,1,9.482,27.018Zm52.193-5.127h0l-.009,0a33.994,33.994,0,0,1-9.12-3.578,32.047,32.047,0,0,1-9.252,3.58V20.238a27.947,27.947,0,0,0,7.227-3.246A17.827,17.827,0,0,1,45.406,11.5h3.2a14.937,14.937,0,0,0,3.91,4,13.221,13.221,0,0,0,3.932-5.374H44.523V8.753H50.51V6.537H43.418V5.154H50.51V3a.644.644,0,0,1,.631-.656h3.185V5.154h7.143V6.535H54.326V8.753h6.16a14.918,14.918,0,0,1-5.879,8.189,38.263,38.263,0,0,0,7.067,3.383V21.89Zm6.4-.295H64.986V11.2H62.164l3.679-8.734,3.435,0L66.953,7.808h1.119V21.6Zm11.228-.25H75.145v-1.4h1.626a.553.553,0,0,0,.521-.508V7.34h-7.9V5.987h7.9V2.624h3.2l0,3.362H81.8V7.34H80.5V20.093a1.273,1.273,0,0,1-1.2,1.254Zm22.322-.182H83.988V19.811h6.9V14.122h-6.9V12.768h6.9V10.092h-6.9V8.737h17.22v1.354h-6.9v2.675h6.9V14.12h-6.9v5.689h3.511l-.864-2.937h2.986a.584.584,0,0,1,.554.42l1.128,3.822-.014,0,.013.045ZM75.666,15.8H72.508L70.427,9.215H73.1a.713.713,0,0,1,.636.408L75.666,15.8ZM101.211,7.5H97.623v-2H87.577l0,1.993H83.988V4.152h6.731V2.291h3.756V4.154h5.8a.953.953,0,0,1,.671.3.97.97,0,0,1,.262.688V7.5Z" transform="translate(0 0)" fill="#108ee9"/>
    </g>
  </g>
</svg>
