<svg xmlns="http://www.w3.org/2000/svg" width="100" height="20" viewBox="0 0 75 15" xmlns:v="https://vecta.io/nano"><path d="M65.397.139c-.615.013-1.225.229-1.708.612-.609.477-1.009 1.213-1.072 1.984-.112 1.094.484 2.21 1.446 2.739l3.305 1.914 5.663 3.273c.622-.361 1.149-.892 1.478-1.535.43-.824.538-1.808.309-2.709-.192-.768-.635-1.47-1.247-1.972-.314-.264-.681-.454-1.034-.661L66.926.547c-.339-.197-.714-.336-1.104-.384a2.74 2.74 0 0 0-.425-.024zM1.525 1.357c-.259-.004-.519.067-.735.213C.088 1.976-.032 3.047.559 3.6l4.027 4.047.014 4.575c-.034.738.7 1.381 1.429 1.257.713.009 1.258-.715 1.234-1.393l-.002-4.457 3.968-3.993c.658-.597.47-1.805-.354-2.154-.545-.262-1.215-.087-1.607.361L5.902 5.203 2.421 1.735c-.232-.246-.563-.372-.896-.377zm31.169.002c-.622.012-1.233.455-1.293 1.108l-.034 5.731c-.046 1.048-.72 2.046-1.704 2.428-1.139.505-2.582.065-3.275-.961-.334-.471-.486-1.046-.508-1.617l-.026-5.578c-.076-.85-1.057-1.308-1.809-1.014-.583.231-.868.879-.834 1.478l-.005 5.107c.028 1.529.65 3.058 1.809 4.077 1.698 1.582 4.454 1.826 6.417.6 1.568-.935 2.565-2.702 2.606-4.522l-.009-5.417c.028-.554-.3-1.117-.822-1.325-.164-.069-.339-.099-.513-.096zm-15.553.037c-.681-.001-1.36.076-1.988.357a5.41 5.41 0 0 0-3.072 3.253c-.392 1.069-.266 2.228-.271 3.344.023 2.755 2.541 5.216 5.304 5.127.009.001.018-.001.027 0s.018.001.027 0c2.763.09 5.28-2.372 5.304-5.127-.005-1.116.121-2.275-.271-3.344a5.41 5.41 0 0 0-3.072-3.253c-.628-.281-1.307-.358-1.988-.357zm0 2.61h0c1.385.03 2.697 1.217 2.668 2.65-.026.893.155 1.86-.281 2.683-.444.87-1.379 1.487-2.363 1.49-.008 0-.016-.002-.024-.001s-.016.002-.024.001c-.984-.003-1.919-.621-2.363-1.49-.436-.823-.255-1.79-.281-2.683-.029-1.434 1.283-2.62 2.668-2.65z" fill="#fc0160"/><path d="M48.075 1.351a1.23 1.23 0 0 0-.387.072c-.557.198-.925.772-.879 1.362l.019 5.72c.115 2.704 2.6 5.066 5.316 4.974 2.756.152 5.313-2.235 5.432-4.977l.012-5.408c-.006-.402.034-.848-.234-1.182-.336-.515-1.039-.664-1.593-.461-.525.214-.856.775-.834 1.334l-.003 5.415c-.006.978-.627 1.904-1.492 2.343a2.73 2.73 0 0 1-2.526-.033c-.836-.446-1.415-1.346-1.425-2.3l-.031-5.575c.005-.739-.675-1.303-1.376-1.286zm-3.481.006c-.068-.001-.136.005-.204.017-.412-.017-.726.289-1 .554l-4.094 4.103a1.98 1.98 0 0 0 .019 2.792l4.312 4.309c.621.648 1.828.356 2.134-.472.166-.5.091-1.107-.317-1.47L41.68 7.418l3.676-3.682c.296-.294.515-.687.477-1.116.031-.672-.583-1.255-1.238-1.262zm-7.792.005c-.188-.005-.378.025-.553.09-.515.214-.845.769-.822 1.32l-.002 9.303a1.39 1.39 0 0 0 .82 1.323c.803.353 1.877-.257 1.828-1.172l.003-9.449c.008-.303-.028-.617-.22-.864-.232-.361-.641-.542-1.055-.553zm30.521 5.999l-3.277 1.904c-.695.392-1.209 1.086-1.376 1.868-.164.727-.023 1.516.381 2.142.395.629 1.049 1.087 1.775 1.248a2.86 2.86 0 0 0 2.08-.326l6.126-3.535-5.663-3.273z" fill="#08a9fd"/></svg>