<?xml version="1.0" encoding="UTF-8"?>
<svg width="24px" height="17px" viewBox="0 0 24 17" version="1.1" xmlns="http://www.w3.org/2000/svg" xmlns:xlink="http://www.w3.org/1999/xlink">
    <!-- Generator: Sketch 46.2 (44496) - http://www.bohemiancoding.com/sketch -->
    <title>icon-email</title>
    <desc>Created with Sketch.</desc>
    <defs></defs>
    <g id="Web" stroke="none" stroke-width="1" fill="none" fill-rule="evenodd">
        <g id="Login" transform="translate(-334.000000, -473.000000)">
            <g id="Message-Copy" transform="translate(262.000000, 212.000000)">
                <g id="fields" transform="translate(50.000000, 240.000000)">
                    <g id="username">
                        <g id="icon-email" transform="translate(22.000000, 21.000000)">
                            <path d="M2,17 L22,17 L22,17 C23.1045695,17 24,16.1045695 24,15 L24,1 L13.3540621,11.6459379 L13.3540621,11.6459379 C12.5969042,12.4030958 11.3777313,12.429587 10.5883993,11.7060326 L0,2 L0,15 L0,15 C1.3527075e-16,16.1045695 0.8954305,17 2,17 Z" id="Path" fill="#3A8FB7"></path>
                            <path d="M22,0 L1,1.25893918e-16 L10.5615501,9.00852545 L10.5615501,9.00852545 C11.3587401,9.75960736 12.6117645,9.72975863 13.3722871,8.94156992 L22,0 Z" id="Path" fill="#81C7D4"></path>
                        </g>
                    </g>
                </g>
            </g>
        </g>
    </g>
</svg>