<?xml version="1.0" encoding="UTF-8"?>
<svg width="22px" height="22px" viewBox="0 0 22 22" version="1.1" xmlns="http://www.w3.org/2000/svg" xmlns:xlink="http://www.w3.org/1999/xlink">
    <!-- Generator: Sketch 46.2 (44496) - http://www.bohemiancoding.com/sketch -->
    <title>icon-password</title>
    <desc>Created with Sketch.</desc>
    <defs></defs>
    <g id="Web" stroke="none" stroke-width="1" fill="none" fill-rule="evenodd">
        <g id="Login" transform="translate(-335.000000, -532.000000)">
            <g id="Message-Copy" transform="translate(262.000000, 212.000000)">
                <g id="fields" transform="translate(50.000000, 240.000000)">
                    <g id="password" transform="translate(0.000000, 60.000000)">
                        <g id="icon-password" transform="translate(23.000000, 20.000000)">
                            <path d="M15.592745,12.2791356 C17.1610497,12.2791356 18.6326216,11.663751 19.7419604,10.5544121 C20.8389503,9.44507332 21.454335,7.97350141 21.454335,6.40519681 C21.454335,4.8368922 20.8389503,3.3653203 19.7419604,2.25598148 C18.6326216,1.15899151 17.1610497,0.543606895 15.592745,0.543606895 C14.0244404,0.543606895 12.5528685,1.15899151 11.4435297,2.25598148 C10.3341909,3.37766915 9.73115513,4.87188063 9.73115513,6.41548752 C9.73115513,6.92179058 9.79084127,7.42809365 9.92462053,7.92204785 L10.1654232,8.83792128 L0.872180332,17.2109821 L0.872180332,17.2109821 C0.661710132,17.4006123 0.541548752,17.6706154 0.541548752,17.9539127 L0.541548752,20.6804734 L0.541548752,20.6804734 C0.541548752,21.1067286 0.887096926,21.4522768 1.3133522,21.4522768 L1.3133522,21.4522768 L1.3133522,21.4522768 C1.73960747,21.4522768 2.08515565,21.1067286 2.08515565,20.6804734 L2.08515565,20.6804734 L2.08515565,20.6804734 C2.08515565,20.2542181 2.43070382,19.9086699 2.85695909,19.9086699 L2.85695909,19.9086699 L2.85695909,19.9086699 C3.28321437,19.9086699 3.62876254,19.5631218 3.62876254,19.1368665 L3.62876254,19.1368665 L3.62876254,19.1368665 C3.62876254,18.7106112 3.97431072,18.365063 4.40056599,18.365063 L4.40056599,18.365063 L4.40056599,18.365063 C4.82682126,18.365063 5.17236944,18.0195149 5.17236944,17.5932596 L5.17236944,17.5932596 L5.17236944,17.5932596 C5.17236944,17.1670043 5.51791761,16.8214561 5.94417288,16.8214561 L5.94417288,16.8214561 L5.94417288,16.8214561 C6.37042816,16.8214561 6.71597633,16.475908 6.71597633,16.0496527 L6.71597633,16.0496527 L6.71597633,16.0496527 C6.71597633,15.6233974 7.0615245,15.2778492 7.48777978,15.2778492 L8.87225086,15.2778492 L8.87225086,15.2778492 C9.1079481,15.2778492 9.33607046,15.194596 9.51636267,15.0427806 L13.2896836,11.8654489 L14.0738359,12.0733213 C14.5677901,12.2050424 15.0740931,12.2791356 15.592745,12.2791356 Z" id="Shape" fill="#3A8FB7"></path>
                            <path d="M18.2950862,6.21378955 C18.2950862,7.60097762 17.1733985,8.72266529 15.7862104,8.72266529 C14.3990224,8.72266529 13.2773347,7.60097762 13.2773347,6.21378955 C13.2773347,4.82660149 14.3990224,3.70491382 15.7862104,3.70491382 C17.1733985,3.70491382 18.2950862,4.82660149 18.2950862,6.21378955 C18.2950862,6.21378955 18.2950862,4.82660149 18.2950862,6.21378955 L18.2950862,6.21378955 L18.2950862,6.21378955 Z" id="Path" fill="#81C7D4"></path>
                            <path d="M15.0987908,5.53666066 C14.9176743,5.71777721 14.8209416,5.95857988 14.8209416,6.21173141 C14.8209416,6.74273218 15.2552097,7.17700026 15.7862104,7.17700026 C16.3172112,7.17700026 16.7514793,6.74273218 16.7514793,6.21173141 C16.7514793,5.95857988 16.6547466,5.71777721 16.4612812,5.53666066 C16.2801647,5.34319527 16.039362,5.24646257 15.7862104,5.24646257 C15.5330589,5.24646257 15.2799074,5.34525341 15.0987908,5.53666066 C15.0987908,5.53666066 15.2799074,5.34525341 15.0987908,5.53666066 L15.0987908,5.53666066 L15.0987908,5.53666066 Z" id="Path" fill="#FFFFFF"></path>
                        </g>
                    </g>
                </g>
            </g>
        </g>
    </g>
</svg>