<svg width="71px" height="65px" viewBox="0 0 71 65" version="1.1" xmlns="http://www.w3.org/2000/svg" xmlns:xlink="http://www.w3.org/1999/xlink">
    <title>icon 单色</title>
    <g id="页面-1" stroke="none" stroke-width="1" fill="none" fill-rule="evenodd">
        <path d="M35.3802036,1.42108547e-14 C41.928325,1.42108547e-14 47.8396702,1.90260854 52.872573,5.11459741 C54.4943258,3.09031457 56.9663173,1.79725072 59.7355593,1.79725072 C64.6202966,1.79725072 68.5801586,5.82053351 68.5801586,10.7835043 C68.5801586,13.7248423 67.1892888,16.3361224 65.0396692,17.9741665 C67.5482466,22.2681706 69.3021696,27.0473725 70.1676507,31.9818462 C73.1321338,48.8836166 64.9004317,64.2401926 35.242823,64.2401926 C5.5852143,64.2401926 -1.71916254,47.5422548 0.317995252,32.1200963 C0.937739769,27.4283644 2.7195056,22.6185592 5.41754749,18.1972617 C2.90118191,16.6130127 1.22513363,13.781916 1.22513363,10.5530876 C1.22513363,5.59011676 5.18499559,1.56683397 10.0697329,1.56683397 C13.1538764,1.56683397 15.8693227,3.17069711 17.450539,5.6018887 C22.6673026,2.14269573 28.7774088,2.84217094e-14 35.3802036,1.42108547e-14 Z M35.3641791,4.73825654 C33.3761698,4.73825654 31.4323761,4.94308801 29.5560219,5.33183919 C23.6440398,7.22818638 19.3672663,12.8228652 19.3672663,19.4365059 C19.3672663,27.6050864 26.3772468,33.3299575 33.9886609,34.2398987 C41.600075,35.1498399 48.4670833,39.3647345 48.4670833,47.5437709 C48.4670833,54.6618919 43.3503923,58.3198927 36.7403842,59.7382565 C58.667157,59.7382565 68.5175278,48.4097693 65.9759761,33.2202719 C63.4344244,18.0307745 50.5231919,4.73825654 35.3641791,4.73825654 Z" id="icon-单色" fill="#333333" fill-rule="nonzero"></path>
    </g>
</svg>