<svg xmlns="http://www.w3.org/2000/svg" viewBox="-147 -173.3 470 492.3" width="2317" height="2500" xmlns:v="https://vecta.io/nano"><linearGradient id="A" gradientUnits="userSpaceOnUse" x1="88" x2="88" y1="319" y2="-151"><stop offset="0" stop-color="#fbbe0a"/><stop offset="1" stop-color="#feda24"/></linearGradient><circle cx="88" cy="84" fill="url(#A)" r="235"/><path d="M123.8 104l-17.1-23.8L42-9.1.8-65.6C-3.4-71.2-3.9-77.1-2-83.5c3.9-13.3 13.2-22.5 24.2-30.1 20.1-13.9 42.8-21 66.6-25.2 20.7-3.6 41.2-8 59.3-19.4 4.9-3.1 9-7.3 13.5-11 1.2-1 2.3-2.1 4.6-4.1 1.5 7.3 3 13.4 4 19.5 3 18 1.9 35.5-6.2 52.1-11 22.4-29 36.4-52.6 43.6C97-53.5 82.1-52.4 67-52.5c-1.1 0-2.2.3-4.1.5l10.6 18.5 43.4 71.2 47.4 78.6 12.4 20.5c9.3 16 16.1 32.7 14.8 51.9-1.3 18.8-8.1 35.2-19.8 49.6-19.1 23.5-43.9 37.1-73.5 42.4-27.9 4.9-54.5 1.8-79.2-12.3-27.8-15.8-45.6-44.5-41.4-78.7 2.7-22.5 13.9-41.1 30.4-56.4 17.6-16.2 38.5-26.1 61.8-30.6 17.2-3.4 34.4-3.2 51.4 1.4.5.1 1.1-.1 2.6-.1z" fill="#0daf52"/></svg>