<svg xmlns="http://www.w3.org/2000/svg" xmlns:xlink="http://www.w3.org/1999/xlink" width="50.242" height="36" viewBox="0 0 50.242 36">
  <defs>
    <clipPath id="clip-path">
      <path id="Clip_2" data-name="Clip 2" d="M0,0H50.242V36H0Z" fill="none"/>
    </clipPath>
  </defs>
  <g id="银联-信用卡" transform="translate(0)">
    <g id="Group_3" data-name="Group 3">
      <path id="Clip_2-2" data-name="Clip 2" d="M0,0H50.242V36H0Z" fill="none"/>
      <g id="Group_3-2" data-name="Group 3" clip-path="url(#clip-path)">
        <path id="Fill_1" data-name="Fill 1" d="M45.809,36H4.433A4.479,4.479,0,0,1,0,31.5V4.5A4.48,4.48,0,0,1,4.433,0H45.809a4.48,4.48,0,0,1,4.433,4.5v27A4.479,4.479,0,0,1,45.809,36" transform="translate(0 0)" fill="#f8f8f8"/>
      </g>
    </g>
    <g id="Group_6" data-name="Group 6">
      <path id="Clip_5-2" data-name="Clip 5" d="M0,0H50.242V36H0Z" fill="none"/>
      <g id="Group_6-2" data-name="Group 6" clip-path="url(#clip-path)">
        <path id="Fill_4" data-name="Fill 4" d="M47.287,36H2.956A2.981,2.981,0,0,1,0,33V3A2.981,2.981,0,0,1,2.956,0H47.287a2.981,2.981,0,0,1,2.956,3V33A2.981,2.981,0,0,1,47.287,36ZM3.547,1.5A2.087,2.087,0,0,0,1.478,3.6V32.4a2.086,2.086,0,0,0,2.069,2.1H46.7a2.086,2.086,0,0,0,2.069-2.1V3.6A2.087,2.087,0,0,0,46.7,1.5Z" transform="translate(0 0)" fill="#ededed"/>
      </g>
    </g>
    <path id="Fill_7" data-name="Fill 7" d="M5.8,0h7.391a1.457,1.457,0,0,1,1.433,1.9l-3.441,15a2.519,2.519,0,0,1-2.308,1.9H1.484A1.457,1.457,0,0,1,.05,16.9l3.444-15A2.512,2.512,0,0,1,5.8,0" transform="translate(10.315 8.599)" fill="#ed171f"/>
    <path id="Fill_9" data-name="Fill 9" d="M5.8,0h8.5c1.032,0,.566.853.324,1.9l-3.44,15c-.241,1.049-.167,1.9-1.2,1.9h-8.5A1.454,1.454,0,0,1,.051,16.9l3.44-15A2.518,2.518,0,0,1,5.8,0" transform="translate(17.093 8.599)" fill="#082f67"/>
    <path id="Fill_11" data-name="Fill 11" d="M5.8,0h7.389a1.457,1.457,0,0,1,1.434,1.9l-3.442,15a2.515,2.515,0,0,1-2.309,1.9H1.482a1.453,1.453,0,0,1-1.43-1.9l3.439-15A2.515,2.515,0,0,1,5.8,0" transform="translate(25.255 8.599)" fill="#006a65"/>
    <path id="Fill_13" data-name="Fill 13" d="M2.541,4.467H1.685l.057-.194H0l.175-.579H.352L1.265.62,1.447,0h.875L2.231.313a.013.013,0,0,1,.006,0l.006,0A1.516,1.516,0,0,1,2.684.086C2.9.027,4.16,0,4.172,0L3.985.62h-.3l-.9,3.027h.243l-.187.626H2.6l-.057.193Zm-1.1-1.492-.2.68h.7l.2-.68H1.444Zm.355-1.2h0l-.24.8a.222.222,0,0,1,.031-.017l.009,0A3.24,3.24,0,0,1,1.966,2.4c.144-.034.36-.059.361-.059L2.5,1.779H1.8ZM2.143.62l-.23.776.012-.006.007,0,.012-.005.018-.008a3.131,3.131,0,0,1,.354-.135,1.8,1.8,0,0,1,.352-.052h.006L2.84.62Z" transform="translate(28.579 19.05)" fill="#fff"/>
    <path id="Fill_15" data-name="Fill 15" d="M0,0H.934L.945.354C.939.413.988.44,1.1.44h.189l-.175.584H.61C.173,1.056.007.866.018.652Z" transform="translate(32.65 19.055)" fill="#fff"/>
    <path id="Fill_17" data-name="Fill 17" d="M1.407,1.578H.518L.67,1.057H1.686L1.831.584h-1L1,0H3.795L3.62.584H2.682l-.147.473h.94l-.155.521H2.3L2.123,1.8h.413l.1.655a.379.379,0,0,0,.032.134.523.523,0,0,0,.216.034H3.01l-.19.638H2.5c-.05,0-.122,0-.221-.01a.591.591,0,0,1-.227-.1.313.313,0,0,1-.167-.222l-.1-.654-.461.643a.785.785,0,0,1-.681.359H0L.168,2.71H.416A.384.384,0,0,0,.6,2.657.269.269,0,0,0,.734,2.54Z" transform="translate(31.366 20.243)" fill="#fff"/>
    <path id="Fill_19" data-name="Fill 19" d="M.494,0H2.85L2.676.572H1.734l-.148.486h.965l-.175.588H1.412l-.233.792c-.028.086.227.1.32.1l.482-.066-.193.653H.7a1.041,1.041,0,0,1-.247-.036A.26.26,0,0,1,.281,2.96.256.256,0,0,1,.223,2.7L.536,1.656H0l.177-.6H.715L.859.572H.323Z" transform="translate(22.535 20.4)" fill="#fff"/>
    <path id="Fill_21" data-name="Fill 21" d="M1.7.326h.966l-.176.6H1.164l-.143.126c-.061.059-.083.035-.163.078a.925.925,0,0,1-.435.114H0L.173.667H.3A.445.445,0,0,0,.517.634.528.528,0,0,0,.66.448L.9,0h.962Z" transform="translate(22.92 19.049)" fill="#fff"/>
    <path id="Fill_23" data-name="Fill 23" d="M1.5,4.47H.866c-.187,0-.339,0-.451-.014l-.037,0H.359A.357.357,0,0,1,.148,4.4l-.02-.017C.07,4.336,0,4.273,0,4.211a2.393,2.393,0,0,1,.073-.327L1.229,0H2.05l-.119.42L1.94.417,1.949.409A2.433,2.433,0,0,1,2.374.138a4.029,4.029,0,0,1,.585-.13h.006L4.3,0,3.843,1.535a1.792,1.792,0,0,1-.222.51.542.542,0,0,1-.224.21.825.825,0,0,1-.309.106c-.081.007-.2.011-.41.013H1.4L1.032,3.586l0,.013c-.031.111-.047.166-.023.2a.141.141,0,0,0,.122.063L1.693,3.8,1.5,4.469Zm.127-2.916-.082.275H2.711a.835.835,0,0,1,.1-.007l.042,0h.037l.089-.272H1.626ZM1.9.638,1.7,1.3l0,0A1.562,1.562,0,0,1,2.416.98c.059-.011.3-.014.491-.014H3.16l.1-.329Z" transform="translate(24.769 19.052)" fill="#fff"/>
    <path id="Fill_25" data-name="Fill 25" d="M1.911,0,1.835.368a.493.493,0,0,1-.147.276A.588.588,0,0,1,1.245.8L.79.822l0,.415c-.006.12.025.108.044.127a.17.17,0,0,0,.06.036l.144-.007.436-.024-.179.606H.79a1.556,1.556,0,0,1-.7-.076C.01,1.847,0,1.777,0,1.662L.032.037h.8L.82.368h.193A.275.275,0,0,0,1.149.346.179.179,0,0,0,1.2.259L1.283,0Z" transform="translate(26.485 21.532)" fill="#fff"/>
    <path id="Fill_27" data-name="Fill 27" d="M3.347,0C3.318.13,2.805,2.532,2.8,2.533A1.758,1.758,0,0,1,2.34,3.59a.818.818,0,0,1-.544.192.508.508,0,0,1-.569-.491L1.221,3.18s.1-.652.1-.654S1.863.336,1.96.047c0-.016.006-.023.007-.031A8.314,8.314,0,0,1,.721,0C.714.02.687.157.687.157L.137,2.624.09,2.833,0,3.518a1.008,1.008,0,0,0,.117.508c.251.446.966.511,1.369.511a2.64,2.64,0,0,0,1.339-.316,2.031,2.031,0,0,0,.856-1.36l.063-.244S4.3.344,4.393.047A.108.108,0,0,1,4.4.016,8.292,8.292,0,0,1,3.347,0" transform="translate(13.642 13.389)" fill="#fff"/>
    <path id="Fill_29" data-name="Fill 29" d="M2.457,2.694c-.371-.007-.5-.007-.936.014L1.5,2.677c.039-.167.079-.334.116-.5l.054-.229c.079-.358.16-.774.168-.9C1.848.97,1.874.779,1.66.779a.713.713,0,0,0-.28.09c-.052.191-.158.721-.208.967-.108.512-.116.57-.163.824l-.031.034C.595,2.687.462,2.687.02,2.708L0,2.674c.073-.306.148-.612.218-.916A13.5,13.5,0,0,0,.5.2L.532.17c.43-.06.534-.073,1-.17l.039.046L1.5.308c.079-.047.154-.095.235-.138a1.456,1.456,0,0,1,.6-.142.5.5,0,0,1,.518.3c.089.214.031.478-.085.995l-.06.263c-.119.577-.138.683-.206,1.078Z" transform="translate(17.6 15.21)" fill="#fff"/>
    <path id="Fill_31" data-name="Fill 31" d="M1.018,2.123c-.223,0-.369-.007-.508,0s-.277.01-.485.017L.012,2.12,0,2.1A3.118,3.118,0,0,1,.115,1.73a2.567,2.567,0,0,0,.106-.378C.285,1.064.326.862.353.686S.4.368.422.2L.44.187.458.17.966.1c.147-.023.294-.05.525-.1L1.5.02l.007.02C1.462.22,1.42.4,1.377.581s-.085.359-.124.538c-.083.38-.116.522-.137.624s-.024.15-.058.347l-.019.017Z" transform="translate(20.548 15.781)" fill="#fff"/>
    <path id="Fill_33" data-name="Fill 33" d="M1.068,2.7a1.746,1.746,0,0,1-.6-.1C.044,2.434-.09,2.03.059,1.374a1.852,1.852,0,0,1,.5-.981A1.583,1.583,0,0,1,1.673,0a1.07,1.07,0,0,1,.892.33c.108.141.236.4.1,1.019a2.092,2.092,0,0,1-.409.886A1.543,1.543,0,0,1,1.068,2.7ZM1.544.591c-.3,0-.418.4-.509.808a1.887,1.887,0,0,0-.058.429c0,.25.152.277.216.277a.357.357,0,0,0,.278-.183,1.969,1.969,0,0,0,.219-.616c.079-.347.079-.555,0-.653A.177.177,0,0,0,1.544.591Z" transform="translate(22.243 15.255)" fill="#fff"/>
    <path id="Fill_35" data-name="Fill 35" d="M.922,2.712a1.122,1.122,0,0,1-.459-.1C.042,2.448-.09,2.05.059,1.4a1.826,1.826,0,0,1,.5-.975A1.447,1.447,0,0,1,1.463.008a.429.429,0,0,1,.156.025.634.634,0,0,1,.325.273c0-.026.008-.052.011-.078l0-.029L1.992.17l.023,0C2.441.1,2.569.085,3.025,0L3.04.039c-.1.41-.181.759-.252,1.07-.163.71-.227,1.091-.288,1.459l-.01.061-.041.032-.364,0c-.2,0-.345,0-.628.016L1.43,2.641c.013-.053.026-.106.04-.158a.821.821,0,0,1-.49.228ZM1.543.623c-.3,0-.412.378-.508.8a1.9,1.9,0,0,0-.06.428c.007.247.154.274.218.274a.5.5,0,0,0,.36-.178.864.864,0,0,0,.11-.221l.012-.048c.028-.112.055-.223.082-.337l.027-.124c.009-.041.018-.08.025-.117a.54.54,0,0,0-.094-.4A.224.224,0,0,0,1.543.623Z" transform="translate(31.545 15.281)" fill="#fff"/>
    <path id="Fill_37" data-name="Fill 37" d="M2.454,2.694c-.374-.007-.5-.007-.937.014L1.5,2.677c.038-.167.079-.334.118-.5l.052-.229c.08-.358.16-.774.168-.9.007-.077.033-.268-.18-.268a.7.7,0,0,0-.28.09c-.052.191-.158.721-.21.967-.106.512-.113.57-.162.824l-.031.034C.592,2.687.46,2.687.02,2.708L0,2.674c.073-.306.147-.612.216-.916A13.106,13.106,0,0,0,.5.2L.53.17C.96.11,1.064.1,1.53,0l.037.046L1.5.308c.078-.047.156-.095.235-.138a1.451,1.451,0,0,1,.6-.142.51.51,0,0,1,.523.3c.086.214.028.478-.089.995L2.7,1.583c-.122.577-.141.683-.2,1.078Z" transform="translate(24.992 15.21)" fill="#fff"/>
    <path id="Fill_39" data-name="Fill 39" d="M1.109,4.542h0c-.066-.007-.184-.01-.382-.01-.16,0-.384,0-.726.006C.031,4.4.714,1.55.721,1.523c0,0,.1-.455.275-1.3L1.007.167c0-.012.022-.11.033-.166a5.682,5.682,0,0,0,.577.017c.176,0,.4,0,.681-.005l.311,0c.627,0,1.169.008,1.444.4A.85.85,0,0,1,4.2.926a1.83,1.83,0,0,1-.049.41A1.979,1.979,0,0,1,3.424,2.5a2.941,2.941,0,0,1-1.824.4H1.537a.354.354,0,0,0-.089.086c-.008.02-.141.587-.147.611s-.177.86-.192.939ZM1.961.667,1.956.721l-.007.07h0c0,.008-.3,1.333-.307,1.346l-.013.068H1.8a1.568,1.568,0,0,0,.711-.113.993.993,0,0,0,.5-.675.539.539,0,0,0-.279-.68L2.084.681Z" transform="translate(28.058 13.377)" fill="#fff"/>
    <path id="Fill_41" data-name="Fill 41" d="M.963.611c.246-.173.275-.414.07-.538A.832.832,0,0,0,.207.161C-.041.334-.069.574.14.7A.832.832,0,0,0,.963.611" transform="translate(21.012 14.975)" fill="#fff"/>
    <path id="Fill_43" data-name="Fill 43" d="M3.721.041,3.686,0c-.457.092-.541.11-.963.166L2.691.2s0,.013,0,.019l0-.006c-.316.736-.3.577-.56,1.154,0-.026,0-.043,0-.07L2.058.041,2.018,0c-.48.092-.493.11-.935.166L1.045.2c0,.016,0,.031-.006.049l0,.007a5.846,5.846,0,0,1,.1.677c.027.223.061.448.086.668.045.367.069.55.121,1.111-.3.5-.37.694-.655,1.135v0l-.2.328a.171.171,0,0,1-.074.066.322.322,0,0,1-.136.02H.168L0,4.828l.576.01a.71.71,0,0,0,.662-.376L1.6,3.833H1.592l.04-.044C1.875,3.259,3.721.041,3.721.041" transform="translate(33.945 15.235)" fill="#fff"/>
  </g>
</svg>
