<svg id="visa-信用卡" xmlns="http://www.w3.org/2000/svg" xmlns:xlink="http://www.w3.org/1999/xlink" width="50.242" height="36" viewBox="0 0 50.242 36">
  <defs>
    <clipPath id="clip-path">
      <path id="Clip_2" data-name="Clip 2" d="M0,0H50.242V36H0Z" fill="none"/>
    </clipPath>
  </defs>
  <g id="Group_3" data-name="Group 3">
    <path id="Clip_2-2" data-name="Clip 2" d="M0,0H50.242V36H0Z" fill="none"/>
    <g id="Group_3-2" data-name="Group 3" clip-path="url(#clip-path)">
      <path id="Fill_1" data-name="Fill 1" d="M45.809,36H4.433A4.479,4.479,0,0,1,0,31.5V4.5A4.48,4.48,0,0,1,4.433,0H45.809a4.48,4.48,0,0,1,4.433,4.5v27A4.479,4.479,0,0,1,45.809,36" transform="translate(0 0)" fill="#f8f8f8"/>
    </g>
  </g>
  <g id="Group_6" data-name="Group 6">
    <path id="Clip_5-2" data-name="Clip 5" d="M0,0H50.242V36H0Z" fill="none"/>
    <g id="Group_6-2" data-name="Group 6" clip-path="url(#clip-path)">
      <path id="Fill_4" data-name="Fill 4" d="M47.287,36H2.956A2.981,2.981,0,0,1,0,33V3A2.981,2.981,0,0,1,2.956,0H47.287a2.981,2.981,0,0,1,2.956,3V33A2.981,2.981,0,0,1,47.287,36ZM3.547,1.5A2.087,2.087,0,0,0,1.478,3.6V32.4a2.086,2.086,0,0,0,2.069,2.1H46.7a2.086,2.086,0,0,0,2.069-2.1V3.6A2.087,2.087,0,0,0,46.7,1.5Z" transform="translate(0 0)" fill="#ededed"/>
    </g>
  </g>
  <path id="Fill_7" data-name="Fill 7" d="M0,11.7H3.14L5.106,0H1.964Z" transform="translate(18.635 12.075)" fill="#004a9b"/>
  <path id="Fill_9" data-name="Fill 9" d="M6.332,4.9C5.233,4.36,4.561,4,4.568,3.45c0-.486.569-1.007,1.8-1.007a5.7,5.7,0,0,1,2.351.449L9,3.026,9.425.491A8.018,8.018,0,0,0,6.61,0C3.505,0,1.319,1.586,1.3,3.862c-.018,1.68,1.56,2.617,2.753,3.178,1.222.574,1.634.938,1.628,1.451-.008.785-.976,1.142-1.88,1.142A6.508,6.508,0,0,1,.844,9.019l-.4-.187L0,11.452a9.807,9.807,0,0,0,3.5.624c3.3,0,5.445-1.568,5.47-4C8.981,6.748,8.144,5.735,6.332,4.9" transform="translate(23.759 11.962)" fill="#004a9b"/>
  <path id="Fill_11" data-name="Fill 11" d="M3.3,11.693H0L4.666.969A1.555,1.555,0,0,1,6.311,0H8.737l2.544,11.691H8.366s-.283-1.321-.383-1.753h0l-2.2,0H5.61l-1.651,0c-.118.311-.655,1.745-.66,1.759ZM6.116,4.27c-.01.025-1,2.61-1.252,3.272H7.471c-.116-.552-.663-3.087-.725-3.374L6.533,3.154c-.079.215-.185.5-.271.722-.107.283-.148.39-.147.4Z" transform="translate(32.503 12.177)" fill="#004a9b"/>
  <path id="Fill_13" data-name="Fill 13" d="M8.01,0,4.934,7.978,4.607,6.356A9,9,0,0,0,.872,1.8l.053-.01L.641,1.657C.513,1.584.385,1.514.257,1.448l.011.038L0,1.364a.662.662,0,0,1,.351.426L3.069,11.68l3.324,0L11.338,0Z" transform="translate(8.005 12.174)" fill="#004a9b"/>
  <path id="Fill_15" data-name="Fill 15" d="M5.106,0H.04L0,.244c3.941.97,6.549,3.31,7.631,6.121L6.529.988A1.315,1.315,0,0,0,5.106,0" transform="translate(4.982 12.166)" fill="#f9a731"/>
</svg>
