<?xml version="1.0" encoding="UTF-8"?>
<svg width="86px" height="43px" viewBox="0 0 86 43" version="1.1" xmlns="http://www.w3.org/2000/svg" xmlns:xlink="http://www.w3.org/1999/xlink">
    <title>wechat</title>
    <g id="Page-1" stroke="none" stroke-width="1" fill="none" fill-rule="evenodd">
        <g id="wechat">
            <g id="Group" transform="translate(6.000000, 11.000000)" fill-rule="nonzero">
                <path d="M8.93751429,13.8971575 C8.82685714,13.9536299 8.70231429,13.9862835 8.56988571,13.9862835 C8.26337143,13.9862835 7.99697143,13.8159134 7.85708571,13.5636929 L7.80351429,13.4452913 L5.57194286,8.49693701 C5.54785714,8.44314961 5.53294286,8.38225984 5.53294286,8.32301575 C5.53294286,8.09496063 5.71594286,7.9102126 5.94162857,7.9102126 C6.03317143,7.9102126 6.11794286,7.94087402 6.18608571,7.99206299 L8.81948571,9.88674803 C9.01182857,10.013811 9.24171429,10.0883858 9.48882857,10.0883858 C9.63634286,10.0883858 9.77691429,10.0606693 9.90805714,10.0124252 L22.2919714,4.44287402 C20.0721429,1.79932283 16.4163429,0.0715433071 12.2793429,0.0715433071 C5.50945714,0.0715433071 0.0218571429,4.69275591 0.0218571429,10.3937008 C0.0218571429,13.5036693 1.67288571,16.3033858 4.25717143,18.1957323 C4.46442857,18.345315 4.6002,18.5910394 4.6002,18.868378 C4.6002,18.9601024 4.58074286,19.0437717 4.557,19.131252 C4.3506,19.9092205 4.02025714,21.1551654 4.00491429,21.2135433 C3.97911429,21.3111575 3.93891429,21.413189 3.93891429,21.5153071 C3.93891429,21.7433622 4.12174286,21.9281102 4.34777143,21.9281102 C4.43631429,21.9281102 4.50882857,21.8947638 4.58365714,21.8512835 L7.26711429,20.2856457 C7.46897143,20.1681102 7.68265714,20.0950079 7.9182,20.0950079 C8.04342857,20.0950079 8.16445714,20.1146693 8.27828571,20.1498346 C9.53014286,20.5137008 10.8808286,20.7158583 12.2794286,20.7158583 C19.0488857,20.7158583 24.5372571,16.0943858 24.5372571,10.3937008 C24.5372571,8.66696063 24.0308571,7.04077953 23.1408857,5.61025984 L9.02734286,13.8448425 L8.93751429,13.8971575 Z" id="Path" fill="#1AAD19"></path>
                <path d="M34.7745429,17.7926299 L34.6804286,18.1299921 C34.6019143,18.411315 34.5324,18.659811 34.4724857,18.9052756 C34.3959429,18.5432283 34.2901714,18.1385669 34.1949429,17.7816299 L33.5643429,15.3782598 L33.5532857,15.3356457 L33.1398,15.3356457 L32.4343714,17.7973937 C32.3081143,18.213748 32.1961714,18.5895669 32.1176571,18.9184409 C32.0572286,18.6584252 31.9843714,18.3684409 31.9082571,18.0641654 L31.2240857,15.3782598 L31.2126857,15.3356457 L30.7356,15.3356457 L31.8818571,19.7215276 L31.8929143,19.7644882 L32.2997143,19.7644882 L33.0368571,17.251811 C33.1654286,16.8235039 33.2623714,16.4868346 33.3323143,16.1925197 C33.3950571,16.5031181 33.4823143,16.8444646 33.5914286,17.2487795 L34.2286286,19.721874 L34.2396857,19.7644882 L34.6524857,19.7644882 L35.9440286,15.4096142 L35.9663143,15.3356457 L35.4866571,15.3356457 L34.7745429,17.7926299 Z" id="Path" fill="#514F4F"></path>
                <path d="M37.4694,16.4928976 C36.6117429,16.4928976 36.0354,17.1870236 36.0354,18.2204173 C36.0354,19.1816614 36.6318857,19.8277165 37.5196286,19.8277165 C38.0776286,19.8277165 38.3945143,19.6830709 38.505,19.621315 L38.5728,19.5829449 L38.3718857,19.2312047 L38.3243143,19.2532047 C38.1674571,19.3266535 37.9536857,19.401748 37.5572571,19.401748 C36.9072,19.401748 36.5218286,18.9697165 36.4953429,18.2152205 L38.6935714,18.2152205 L38.7079714,18.1497402 C38.7220286,18.0837402 38.7220286,18.0357559 38.7220286,17.9484488 C38.7220286,17.8300472 38.7058286,17.4159449 38.4938571,17.0562362 C38.2740857,16.6823228 37.9294286,16.4928976 37.4694,16.4928976 M36.5202857,17.8082205 C36.6364286,17.1484803 37.065,16.9122835 37.4316857,16.9122835 C37.6649143,16.9122835 37.8516857,16.9831339 37.9881429,17.1234488 C38.1895714,17.3300236 38.2350857,17.6294488 38.2431429,17.8082205 L36.5202857,17.8082205 Z" id="Shape" fill="#514F4F"></path>
                <path d="M42.2622,19.225315 L42.2618571,19.225315 C42.0247714,19.3355748 41.6922857,19.401748 41.3724,19.401748 C40.3073143,19.401748 39.6713143,18.7214803 39.6713143,17.581811 C39.6713143,16.3984882 40.3259143,15.692063 41.4226286,15.692063 C41.7258,15.692063 42.0140571,15.749748 42.2347714,15.8546378 L42.2821714,15.8771575 L42.4962857,15.5015984 L42.4323429,15.4660866 C42.3476571,15.4190551 42.0245143,15.2659213 41.4162,15.2659213 C40.0867714,15.2659213 39.1936286,16.1939921 39.1936286,17.5752283 C39.1936286,19.2376142 40.3134,19.8278898 41.2723714,19.8278898 C41.8126286,19.8278898 42.2338286,19.712 42.4482857,19.6039055 L42.5180571,19.5683937 L42.3094286,19.203315 L42.2622,19.225315 Z" id="Path" fill="#514F4F"></path>
                <path d="M44.4279429,16.4928976 C44.1934286,16.4928976 43.9686,16.5580315 43.7797714,16.6808504 C43.6710857,16.7438189 43.5700286,16.8306929 43.4838,16.9346299 L43.4838,15.2660945 L43.0187143,15.2660945 L43.0187143,19.7644882 L43.4838,19.7644882 L43.4838,17.8284882 C43.4838,17.712252 43.4890286,17.6375039 43.5168,17.5523622 C43.6470857,17.1830394 43.9885714,16.9249291 44.3466857,16.9249291 C44.9937429,16.9249291 45.0903429,17.5264646 45.0903429,17.8853071 L45.0903429,19.7644016 L45.5556,19.7644016 L45.5556,17.8537795 C45.5554286,16.558378 44.6160857,16.4928976 44.4279429,16.4928976" id="Path" fill="#514F4F"></path>
                <path d="M49.7082857,15.8805354 L49.2426857,15.8805354 L49.2426857,16.5918976 L48.7357714,16.5918976 L48.7357714,16.9757717 L49.2426857,16.9757717 L49.2426857,18.8087008 C49.2426857,19.1737795 49.3103143,19.4290315 49.4479714,19.5870157 C49.5726857,19.748378 49.7727429,19.8340394 50.0260286,19.8340394 C50.202,19.8340394 50.3543143,19.8063228 50.4785143,19.7513228 L50.5535143,19.7181496 L50.358,19.3762835 L50.3176286,19.3852913 C50.2471714,19.4003622 50.1618,19.4083307 50.064,19.4083307 C49.8145714,19.4083307 49.7082857,19.2459291 49.7082857,18.8656063 L49.7082857,16.9758583 L50.5656,16.9758583 L50.5656,16.5919843 L49.7082857,16.5919843 L49.7082857,15.8805354 Z" id="Path" fill="#514F4F"></path>
                <path d="M53.6055429,15.3041181 C53.2969714,15.3041181 52.9866,15.3323543 52.6836,15.3873543 L52.6156286,15.3997402 L52.6156286,19.7646614 L53.0808857,19.7646614 L53.0808857,17.9650787 C53.2062857,17.9885512 53.3452286,17.9938346 53.5119429,17.9938346 C54.0697714,17.9938346 54.5313429,17.8153228 54.8118857,17.4924252 C55.0238571,17.2572677 55.1273143,16.9595748 55.1273143,16.5824567 C55.1273143,16.2141732 55.0061143,15.9051339 54.7767429,15.688252 C54.5223429,15.4371575 54.1173429,15.3041181 53.6055429,15.3041181 M53.0808857,15.7600551 C53.1720857,15.7446378 53.3430857,15.7236772 53.5930286,15.7236772 C54.2724,15.7236772 54.6621429,16.0481339 54.6621429,16.6141575 C54.6621429,17.2243543 54.2518286,17.574189 53.5368,17.574189 C53.3982,17.574189 53.2232571,17.569252 53.0809714,17.5322677 L53.0809714,15.7600551 L53.0808857,15.7600551 Z" id="Shape" fill="#514F4F"></path>
                <path d="M60.2506286,16.5624488 L59.4988286,18.5822913 C59.4385714,18.7409685 59.3853429,18.8989528 59.3404286,19.0332913 C59.2930286,18.8863071 59.2403143,18.7354252 59.1892286,18.6003937 L58.4005714,16.6148504 L58.3801714,16.5624488 L57.8831143,16.5624488 L59.0424,19.4906142 C59.0735143,19.5702992 59.0742,19.5917795 59.0742,19.5926457 C59.0742,19.6127402 59.058,19.6554409 59.0430857,19.6931181 C58.8934286,20.0516142 58.6979143,20.2921417 58.5609429,20.4305512 C58.3724571,20.6139134 58.1687143,20.7081496 58.0638857,20.7477323 L57.9793714,20.779 L58.1996571,21.1634803 L58.2443143,21.1462441 C58.3235143,21.1157559 58.5327429,21.0241181 58.7661429,20.8253386 C59.1662571,20.4726457 59.4192,19.9366772 59.8026,18.9409606 L60.7176857,16.6412677 L60.7498286,16.5624488 L60.2506286,16.5624488 Z" id="Path" fill="#514F4F"></path>
                <path d="M48.3708,18.960189 L48.3708,17.7715827 C48.3708,16.9348898 47.9831143,16.492811 47.2494857,16.492811 C46.9255714,16.492811 46.5783429,16.5948425 46.3224,16.7652126 L46.2743143,16.7944882 L46.4761714,17.1475276 L46.5269143,17.1132283 C46.7150571,16.9838268 46.9607143,16.9121102 47.2182857,16.9121102 L47.2288286,16.9121102 C47.4357429,16.9121102 47.5966286,16.9682362 47.7069429,17.0791024 C47.8404,17.2125748 47.9051143,17.4221811 47.9054571,17.7190945 C47.1869143,17.7216063 46.6680857,17.8770787 46.3632857,18.1826535 C46.1697429,18.3759764 46.0720286,18.6228268 46.0720286,18.9160157 C46.0720286,19.3580945 46.374,19.834126 47.0368286,19.834126 C47.4990857,19.834126 47.7948857,19.6083228 47.9498571,19.4428031 L47.982,19.7645748 L48.4286571,19.7645748 L48.4132286,19.6681732 C48.3760286,19.4340551 48.3708,19.1896299 48.3708,18.960189 M46.7181429,18.4362598 C46.9206857,18.2378268 47.3009143,18.1373543 47.8482,18.1373543 L47.9047714,18.1377008 L47.9056286,18.7072756 C47.9056286,18.7472047 47.9010857,18.8064488 47.8788857,18.8636142 C47.7888,19.1302126 47.5288286,19.4145669 47.0682857,19.4145669 C46.8290571,19.4145669 46.5497999,19.2704409 46.5497999,18.8656063 C46.5497143,18.6905591 46.6062857,18.5462598 46.7181429,18.4362598" id="Shape" fill="#514F4F"></path>
                <path d="M57.5374286,18.960189 L57.5374286,17.7715827 C57.5374286,16.9348898 57.1497429,16.492811 56.4162857,16.492811 C56.1108,16.492811 55.7774571,16.5865276 55.5252,16.7432126 L55.4783143,16.7730079 L55.6782,17.1221496 L55.7280857,17.0907087 C55.9114286,16.975685 56.1445714,16.9121102 56.385,16.9121102 L56.3960571,16.9121102 C56.6022857,16.9121102 56.7631714,16.9682362 56.8738286,17.0789291 C57.0071143,17.2125748 57.0719143,17.4221811 57.0721714,17.7192677 C56.3541429,17.7216063 55.8353143,17.8774252 55.53,18.1824803 C55.3368,18.3759764 55.2389143,18.6226535 55.2389143,18.916189 C55.2389143,19.3580945 55.5408857,19.834126 56.2033714,19.834126 C56.6658857,19.834126 56.9619429,19.6084961 57.1167429,19.4428031 L57.1485429,19.7645748 L57.5957143,19.7645748 L57.5804571,19.6681732 C57.5424,19.433189 57.5374286,19.1892835 57.5374286,18.960189 M57.0721714,18.7072756 C57.0721714,18.7475512 57.0674571,18.8070551 57.0454286,18.8637874 C56.9553429,19.1298661 56.6952,19.4145669 56.2348286,19.4145669 C55.9956,19.4145669 55.7163429,19.2706142 55.7163429,18.8656063 C55.7163429,18.6905591 55.7729143,18.5461732 55.8849429,18.4362598 C56.0873143,18.2378268 56.4677143,18.1373543 57.0146571,18.1373543 L57.0719143,18.1377008 L57.0721714,18.7072756 Z" id="Shape" fill="#514F4F"></path>
                <rect id="Rectangle" fill="#514F4F" x="45.7570286" y="5.84541732" width="6.18197143" height="1"></rect>
                <rect id="Rectangle" fill="#514F4F" x="45.7570286" y="7.59511024" width="6.18197143" height="1"></rect>
                <path d="M45.9137143,12.7706535 L51.7826571,12.7706535 L51.7826571,9.38914961 L45.9137143,9.38914961 L45.9137143,12.7706535 Z M46.5112286,9.94911024 L51.1848,9.94911024 L51.1848,12.2097402 L46.5112286,12.2097402 L46.5112286,9.94911024 Z" id="Shape" fill="#514F4F"></path>
                <path d="M44.0599714,13.1217008 L44.0599714,5.34218898 C44.4105429,4.57894488 44.7207429,3.75637008 44.9740286,2.92322835 L44.4212571,2.60015748 C43.8755143,4.54369291 43.0754571,6.31001575 42.0718286,7.788 L42.4014857,8.3606063 C42.7494,7.84074803 43.1166857,7.22933858 43.4623714,6.58856693 L43.4623714,13.1217008 L44.0599714,13.1217008 Z" id="Path" fill="#514F4F"></path>
                <path d="M66.7733143,13.1217008 L66.7733143,5.34218898 C67.1238857,4.57894488 67.4340857,3.75637008 67.6873714,2.92322835 L67.1346,2.60015748 C66.5888571,4.54369291 65.7891429,6.31001575 64.7851714,7.788 L65.1148286,8.3606063 C65.4627429,7.84074803 65.8300286,7.22933858 66.1757143,6.58856693 L66.1757143,13.1217008 L66.7733143,13.1217008 Z" id="Path" fill="#514F4F"></path>
                <path d="M52.5885429,4.05155118 L48.9567429,4.05155118 L49.3414286,3.82791339 L49.3553143,3.81959843 L49.3488,3.8053937 C49.3047429,3.70119685 49.1889429,3.45607874 49.0660286,3.19640945 C48.9520286,2.95449606 48.8345143,2.70461417 48.7779429,2.5764252 L48.7705714,2.55849606 L48.2194286,2.87974803 L48.2276571,2.8948189 C48.4248857,3.2700315 48.5939143,3.61328346 48.7459714,3.94605512 C48.7672286,3.99092126 48.7807714,4.0266063 48.7854857,4.0516378 L45.1506857,4.0516378 L45.1506857,4.65594488 L52.5885429,4.65594488 L52.5885429,4.05155118 L52.5885429,4.05155118 Z" id="Path" fill="#514F4F"></path>
                <polygon id="Path" fill="#514F4F" points="36.5636571 3.59292913 36.0093429 3.59292913 36.0093429 5.56210236 34.9620857 5.56210236 34.9620857 2.76186614 34.4076 2.76186614 34.4076 5.56210236 33.3168857 5.56210236 33.3168857 3.59292913 32.7625714 3.59292913 32.7625714 6.12240945 36.5636571 6.12240945"></polygon>
                <rect id="Rectangle" fill="#514F4F" x="32.9357143" y="7.2239685" width="3.36831429" height="1"></rect>
                <path d="M33.6632571,9.95422047 L33.6632571,9.44692126 L35.3599714,9.44692126 L35.3599714,10.6971102 C35.3390571,11.1333858 35.3176286,11.2661654 35.1692571,11.4746457 L35.1624,11.4840866 L35.5031143,12.0800787 L35.5192286,12.0670866 C35.8175143,11.8255197 36.3268286,11.3843071 37.0326,10.7563543 L37.0433143,10.7473465 L36.7758,10.278937 L36.7650857,10.2604882 L35.9146286,10.9975748 L35.9146286,8.88661417 L33.0656571,8.88661417 L33.0656571,9.73699213 C33.1463143,10.9009134 32.8585714,11.7338819 32.2108286,12.2113858 L32.1984,12.2204803 L32.5068,12.761126 L32.5171714,12.7792283 L32.5331143,12.7658898 C33.3402,12.0945433 33.7206857,11.1480236 33.6632571,9.95422047" id="Path" fill="#514F4F"></path>
                <path d="M30.0237429,5.40914173 L30.3582,5.99465354 C31.2186857,5.12444094 31.9534286,4.07900787 32.4985714,2.94895276 L31.9816286,2.64666929 C31.4472857,3.74840157 30.7764857,4.69544094 30.0237429,5.40914173" id="Path" fill="#514F4F"></path>
                <path d="M29.8722857,8.92870866 L30.1794857,9.46649606 L30.1917429,9.48849606 L30.2076857,9.46935433 C30.5352857,9.08314173 30.8557714,8.67562205 31.1605714,8.25779528 L31.1605714,13.1215276 L31.7150571,13.1215276 L31.7150571,7.33414173 C31.9658571,6.88314173 32.2086,6.37956693 32.4359143,5.83666929 L32.4415714,5.82281102 L31.9055143,5.5103937 L31.8979714,5.52953543 C31.3854,6.82467717 30.7062,7.9652126 29.8805143,8.9191811 L29.8722857,8.92870866 Z" id="Path" fill="#514F4F"></path>
                <path d="M38.58,9.60196063 C38.2150286,8.65024409 37.944,7.35622835 37.7739429,5.75525197 C37.8293143,5.58756693 37.8996857,5.41641732 37.9835143,5.24656693 L39.4692857,5.24656693 C39.3547714,7.07274016 39.0552857,8.53790551 38.58,9.60196063 M40.6305429,5.24656693 L40.6305429,4.68608661 L38.1696,4.68608661 L38.1699429,4.68608661 C38.3830286,4.03561417 38.628,3.27877953 38.7103714,2.63055906 L38.1316286,2.62969291 C37.7717143,4.3346063 37.2224571,5.81414961 36.5148,6.98118898 L36.8650286,7.59389764 L37.122,7.07490551 C37.2186,6.90401575 37.2967714,6.75971654 37.3557429,6.64469291 C37.5291429,8.15507087 37.8318857,9.37035433 38.2559143,10.2584961 C37.8487714,10.9700315 37.2224571,11.708937 36.3939429,12.4552913 L36.3834,12.4645591 L36.7026857,13.0238268 L36.7142571,13.0427953 L36.7298571,13.0277244 C37.6074,12.1970945 38.2147714,11.4697087 38.5360286,10.8652283 C38.9018571,11.5239291 39.5212286,12.3215591 40.2409714,13.059685 L40.2567429,13.0759685 L40.5852,12.5023228 L40.5918857,12.489937 L40.5820286,12.4803228 C39.8104286,11.7357874 39.1985143,10.9628425 38.8584,10.303622 C39.4868571,9.14316535 39.8790857,7.44180315 40.0239429,5.24648031 L40.6305429,5.24648031 L40.6305429,5.24656693 Z" id="Shape" fill="#514F4F"></path>
                <path d="M71.6682857,12.3465906 C71.5460571,12.3465906 71.4320571,12.3458976 71.3222571,12.3452047 L71.3222571,12.9489921 C71.5593429,12.9489921 71.7315429,12.9468268 71.8444286,12.9468268 C72.4303714,12.9468268 72.7511143,12.8201102 73.0015714,12.5670236 C73.2446571,12.3208661 73.3611429,11.9444409 73.3469143,11.4495276 L73.3469143,5.83753543 L74.9533714,5.83753543 L74.9533714,5.23530709 L73.3469143,5.23530709 L73.3469143,2.64684252 L72.7476,2.64684252 L72.7476,5.23530709 L67.8156857,5.23530709 L67.8156857,5.83753543 L72.7476,5.83753543 L72.7476,11.4510866 C72.7476,12.0608504 72.3731143,12.3465906 71.6682857,12.3465906" id="Path" fill="#514F4F"></path>
                <path d="M70.3308,10.3485748 L70.9244571,9.99856693 C70.6072286,9.34471654 70.1813143,8.47744882 69.6548571,7.41200787 L69.1138286,7.73144094 C69.4778571,8.4504252 69.8853429,9.32713386 70.3308,10.3485748" id="Path" fill="#514F4F"></path>
                <path d="M60.5409429,9.04866929 C60.1573714,9.49100787 59.6750571,9.99233071 58.9812,10.4935669 C57.2897143,9.19972441 56.5627714,7.78280315 56.3153143,7.18837008 L61.6885714,7.18837008 C61.5551143,7.55050394 61.2348,8.2487874 60.5409429,9.04866929 M64.0847143,4.65248031 L64.0847143,4.05527559 L59.3815714,4.05527559 L59.3815714,2.5403937 L58.7760857,2.5403937 L58.7760857,4.05527559 L54.0728571,4.05527559 L54.0728571,4.65248031 L58.7760857,4.65248031 L58.7760857,6.64244094 L55.7184857,6.64244094 L55.7188286,7.05844882 L55.7188286,7.11630709 C55.7258571,7.13562205 55.7350286,7.15961417 55.7464286,7.18837008 C55.9303714,7.65496063 56.6896286,9.32020472 58.4936571,10.824 C57.5230286,11.432811 56.1912857,12.021874 54.2784,12.483874 L54.6276,13.094937 C56.4552,12.6467953 57.8705143,11.9542283 58.9632,11.1929764 C60.0256286,11.9802992 61.5386571,12.6881102 63.2982857,13.104378 L63.5920286,12.5550709 C61.9094571,12.1427874 60.4614,11.5185591 59.4498857,10.8332677 C61.2922286,9.38958268 62.0645143,7.80315748 62.3047714,7.18837008 C62.3618571,7.04251181 62.3894571,6.95052756 62.394,6.92922047 L61.9026857,6.64244094 L59.3816571,6.64244094 L59.3816571,4.65248031 L64.0847143,4.65248031 L64.0847143,4.65248031 Z" id="Shape" fill="#514F4F"></path>
            </g>
            <rect id="Rectangle" x="0" y="0" width="86" height="43"></rect>
        </g>
    </g>
</svg>